<svg width="29" height="29" viewBox="0 0 29 29" fill="none" xmlns="http://www.w3.org/2000/svg">
<path d="M10.5323 29L9.95523 24.36C9.64262 24.2392 9.34829 24.0942 9.07224 23.925C8.79523 23.7558 8.52446 23.5746 8.25995 23.3813L3.96766 25.1938L0 18.3063L3.71517 15.4788C3.69113 15.3096 3.6791 15.1462 3.6791 14.9887V14.0099C3.6791 13.8533 3.69113 13.6904 3.71517 13.5212L0 10.6938L3.96766 3.80625L8.25995 5.61875C8.52446 5.42542 8.801 5.24417 9.08955 5.075C9.37811 4.90583 9.66667 4.76083 9.95523 4.64L10.5323 0H18.4677L19.0448 4.64C19.3574 4.76083 19.6522 4.90583 19.9292 5.075C20.2053 5.24417 20.4755 5.42542 20.7401 5.61875L25.0323 3.80625L29 10.6938L25.2848 13.5212C25.3089 13.6904 25.3209 13.8533 25.3209 14.0099V14.9887C25.3209 15.1462 25.2969 15.3096 25.2488 15.4788L28.9639 18.3063L24.9963 25.1938L20.7401 23.3813C20.4755 23.5746 20.199 23.7558 19.9104 23.925C19.6219 24.0942 19.3333 24.2392 19.0448 24.36L18.4677 29H10.5323ZM14.5721 19.575C15.9668 19.575 17.1571 19.0796 18.143 18.0888C19.1289 17.0979 19.6219 15.9017 19.6219 14.5C19.6219 13.0983 19.1289 11.9021 18.143 10.9113C17.1571 9.92042 15.9668 9.425 14.5721 9.425C13.1534 9.425 11.9569 9.92042 10.9825 10.9113C10.0091 11.9021 9.52239 13.0983 9.52239 14.5C9.52239 15.9017 10.0091 17.0979 10.9825 18.0888C11.9569 19.0796 13.1534 19.575 14.5721 19.575ZM14.5721 16.675C13.971 16.675 13.4602 16.4633 13.0399 16.0399C12.6186 15.6175 12.408 15.1042 12.408 14.5C12.408 13.8958 12.6186 13.3825 13.0399 12.9601C13.4602 12.5367 13.971 12.325 14.5721 12.325C15.1733 12.325 15.6845 12.5367 16.1058 12.9601C16.5262 13.3825 16.7363 13.8958 16.7363 14.5C16.7363 15.1042 16.5262 15.6175 16.1058 16.0399C15.6845 16.4633 15.1733 16.675 14.5721 16.675ZM13.0572 26.1H15.9067L16.4117 22.2575C17.1571 22.0642 17.8487 21.78 18.4864 21.4049C19.1232 21.0308 19.7061 20.5779 20.2351 20.0463L23.806 21.5325L25.2127 19.0675L22.1107 16.7113C22.2309 16.3729 22.3151 16.0162 22.3632 15.6412C22.4113 15.267 22.4353 14.8867 22.4353 14.5C22.4353 14.1133 22.4113 13.7325 22.3632 13.3574C22.3151 12.9833 22.2309 12.6271 22.1107 12.2888L25.2127 9.9325L23.806 7.4675L20.2351 8.99C19.7061 8.43417 19.1232 7.96872 18.4864 7.59365C17.8487 7.21955 17.1571 6.93583 16.4117 6.7425L15.9428 2.9H13.0933L12.5883 6.7425C11.8429 6.93583 11.1518 7.21955 10.515 7.59365C9.87731 7.96872 9.29395 8.42208 8.76493 8.95375L5.19403 7.4675L3.78731 9.9325L6.8893 12.2525C6.76907 12.615 6.68491 12.9775 6.63682 13.34C6.58872 13.7025 6.56468 14.0892 6.56468 14.5C6.56468 14.8867 6.58872 15.2612 6.63682 15.6237C6.68491 15.9862 6.76907 16.3487 6.8893 16.7113L3.78731 19.0675L5.19403 21.5325L8.76493 20.01C9.29395 20.5658 9.87731 21.0308 10.515 21.4049C11.1518 21.78 11.8429 22.0642 12.5883 22.2575L13.0572 26.1Z" fill="black"/>
</svg>
