<svg width="125" height="125" viewBox="0 0 125 125" fill="none" xmlns="http://www.w3.org/2000/svg">
<path d="M24.8452 81.1411C19.6898 81.1411 15.0313 83.2542 11.6772 86.6099C4.34792 93.943 0 124.643 0 124.643C0 124.643 30.6839 120.293 38.0132 112.959C41.3672 109.604 43.4792 104.943 43.4792 99.7847C43.4792 89.4687 35.1559 81.1411 24.8452 81.1411ZM29.2554 104.197C27.516 105.937 15.7767 108.92 15.7767 108.92C15.7767 108.92 18.696 97.2368 20.4973 95.4344C21.5532 94.2537 23.1061 93.5701 24.8452 93.5701C28.2613 93.5701 31.0566 96.3668 31.0566 99.7847C31.0566 101.525 30.3734 103.079 29.2554 104.197ZM95.7784 72.7515C135.282 33.2271 122.114 2.46512 122.114 2.46512C122.114 2.46512 91.3682 -10.7097 51.8644 28.8147L36.3983 25.7076C32.3609 24.8997 28.1371 26.2047 25.1558 29.1254L0 54.3565L31.0566 67.6555L56.9577 93.5701L70.2499 124.643L95.4057 99.474C98.3249 96.5533 99.6292 92.3273 98.8218 88.2256L95.7784 72.7515ZM33.6031 55.2265L21.7396 50.1305L33.9758 37.8881L42.9202 39.6902C39.3796 44.8483 36.212 50.2548 33.6031 55.2265ZM74.4734 102.892L69.3803 91.0223C74.3492 88.412 79.7531 85.2427 84.8464 81.7003L86.6476 90.6494L74.4734 102.892ZM86.9581 63.9891C78.7593 72.1922 65.964 78.9039 61.8647 80.9546L43.6655 62.746C45.6531 58.7067 52.3613 45.9048 60.6222 37.6395C89.6913 8.55538 111.741 12.8434 111.741 12.8434C111.741 12.8434 116.027 34.905 86.9581 63.9891ZM80.7468 56.2829C87.5795 56.2829 93.1695 50.69 93.1695 43.854C93.1695 37.0178 87.5795 31.425 80.7468 31.425C73.9144 31.425 68.3245 37.0178 68.3245 43.854C68.3245 50.69 73.9144 56.2829 80.7468 56.2829Z" fill="url(#paint0_linear_566_5)"/>
<defs>
<linearGradient id="paint0_linear_566_5" x1="62.1106" y1="0.357155" x2="62.1106" y2="124.643" gradientUnits="userSpaceOnUse">
<stop stop-color="#34E06F"/>
<stop offset="1" stop-color="#007DFA"/>
</linearGradient>
</defs>
</svg>
