<svg width="43" height="43" viewBox="0 0 43 43" fill="none" xmlns="http://www.w3.org/2000/svg">
<path d="M8.49079 27.7994C6.72895 27.7994 5.13693 28.5135 3.99067 29.6475C1.48589 32.1256 0 42.5 0 42.5C0 42.5 10.4861 41.0299 12.9909 38.5518C14.1371 37.4178 14.8589 35.8427 14.8589 34.0997C14.8589 30.6136 12.0144 27.7994 8.49079 27.7994ZM9.99795 35.5907C9.40353 36.1787 5.39165 37.1868 5.39165 37.1868C5.39165 37.1868 6.38932 33.2387 7.00491 32.6296C7.36576 32.2306 7.89644 31.9996 8.49079 31.9996C9.65824 31.9996 10.6135 32.9447 10.6135 34.0997C10.6135 34.6877 10.38 35.2127 9.99795 35.5907ZM32.732 24.9643C46.2324 11.6078 41.7323 1.21235 41.7323 1.21235C41.7323 1.21235 31.2249 -3.23983 17.7245 10.1167L12.439 9.06669C11.0593 8.79369 9.61579 9.23469 8.59693 10.2217L0 18.748L10.6135 23.2422L19.4652 31.9996L24.0077 42.5L32.6047 33.9947C33.6023 33.0077 34.048 31.5796 33.7721 30.1935L32.732 24.9643ZM11.4838 19.042L7.42945 17.32L11.6111 13.1829L14.6679 13.7919C13.4579 15.535 12.3754 17.362 11.4838 19.042ZM25.4511 35.1497L23.7106 31.1386C25.4086 30.2565 27.2554 29.1855 28.996 27.9884L29.6116 31.0126L25.4511 35.1497ZM29.7177 22.0032C26.9158 24.7753 22.543 27.0434 21.1421 27.7364L14.9226 21.5831C15.6018 20.2181 17.8943 15.892 20.7175 13.0989C30.6518 3.27044 38.1873 4.71949 38.1873 4.71949C38.1873 4.71949 39.652 12.1748 29.7177 22.0032ZM27.595 19.399C29.9301 19.399 31.8404 17.509 31.8404 15.199C31.8404 12.8888 29.9301 10.9988 27.595 10.9988C25.2601 10.9988 23.3497 12.8888 23.3497 15.199C23.3497 17.509 25.2601 19.399 27.595 19.399Z" fill="url(#paint0_linear_768_18)"/>
<defs>
<linearGradient id="paint0_linear_768_18" x1="21.2261" y1="0.500003" x2="21.2261" y2="42.5" gradientUnits="userSpaceOnUse">
<stop stop-color="#34E06F"/>
<stop offset="1" stop-color="#007DFA"/>
</linearGradient>
</defs>
</svg>
