<svg width="355" height="91" viewBox="0 0 355 91" fill="none" xmlns="http://www.w3.org/2000/svg">
<path d="M34.4982 56.7041H11.7528V43.5959H34.4982C38.2184 43.5959 41.231 42.9889 43.5358 41.7753C45.881 40.5211 47.5997 38.8217 48.6915 36.6775C49.7834 34.493 50.3292 32.0047 50.3292 29.2132C50.3292 26.5024 49.7834 23.974 48.6915 21.6273C47.5997 19.2809 45.881 17.3793 43.5358 15.9229C41.231 14.4664 38.2184 13.738 34.4982 13.738H17.2115V88.9286H0.531494V0.569183H34.4982C41.3725 0.569183 47.2358 1.80324 52.0882 4.27108C56.9809 6.69854 60.7011 10.0768 63.2487 14.4058C65.8366 18.6942 67.1306 23.5895 67.1306 29.0917C67.1306 34.7964 65.8366 39.7119 63.2487 43.8385C60.7011 47.9653 56.9809 51.141 52.0882 53.3663C47.2358 55.5915 41.3725 56.7041 34.4982 56.7041ZM93.7895 36.6775V88.9286H77.7766V23.2658H92.9404L93.7895 36.6775ZM113.744 22.8412L113.503 37.77C112.613 37.6081 111.601 37.4867 110.47 37.4059C109.378 37.3249 108.346 37.2845 107.375 37.2845C104.909 37.2845 102.745 37.6283 100.887 38.316C99.0262 38.9634 97.4693 39.9142 96.2157 41.1684C95.0027 42.4227 94.0726 43.9599 93.4256 45.7804C92.7786 47.5606 92.4148 49.5836 92.3338 51.8492L88.8765 51.4243C88.8765 47.2571 89.3012 43.3936 90.1503 39.8334C90.9994 36.2731 92.2328 33.1577 93.8503 30.4876C95.4677 27.8173 97.4894 25.7541 99.9156 24.2977C102.383 22.8005 105.214 22.0522 108.408 22.0522C109.298 22.0522 110.248 22.133 111.257 22.2948C112.31 22.4163 113.138 22.5983 113.744 22.8412ZM116.749 56.7647V55.4903C116.749 50.676 117.437 46.2457 118.811 42.2C120.185 38.1138 122.188 34.5738 124.815 31.58C127.445 28.586 130.659 26.2598 134.46 24.6009C138.262 22.9018 142.587 22.0522 147.439 22.0522C152.374 22.0522 156.74 22.9018 160.542 24.6009C164.382 26.2598 167.617 28.586 170.247 31.58C172.876 34.5738 174.876 38.1138 176.251 42.2C177.625 46.2457 178.313 50.676 178.313 55.4903V56.7647C178.313 61.5388 177.625 65.9688 176.251 70.055C174.876 74.1008 172.876 77.6408 170.247 80.6752C167.617 83.6692 164.403 85.9954 160.601 87.6541C156.802 89.3128 152.454 90.1424 147.561 90.1424C142.708 90.1424 138.363 89.3128 134.52 87.6541C130.68 85.9954 127.445 83.6692 124.815 80.6752C122.188 77.6408 120.185 74.1008 118.811 70.055C117.437 65.9688 116.749 61.5388 116.749 56.7647ZM132.763 55.4903V56.7647C132.763 59.6373 133.045 62.3278 133.612 64.836C134.176 67.3445 135.045 69.5493 136.218 71.4509C137.393 73.3524 138.909 74.8493 140.767 75.9417C142.669 76.9935 144.934 77.5196 147.561 77.5196C150.149 77.5196 152.374 76.9935 154.232 75.9417C156.093 74.8493 157.61 73.3524 158.782 71.4509C159.996 69.5493 160.886 67.3445 161.45 64.836C162.017 62.3278 162.302 59.6373 162.302 56.7647V55.4903C162.302 52.6584 162.017 50.0085 161.45 47.5404C160.886 45.0321 159.996 42.8271 158.782 40.9255C157.61 38.9836 156.072 37.4665 154.173 36.3741C152.312 35.2413 150.068 34.675 147.439 34.675C144.851 34.675 142.628 35.2413 140.767 36.3741C138.909 37.4665 137.393 38.9836 136.218 40.9255C135.045 42.8271 134.176 45.0321 133.612 47.5404C133.045 50.0085 132.763 52.6584 132.763 55.4903ZM225.96 62.1051V0.569183H242.639V62.1051C242.639 67.9714 241.366 73.0086 238.817 77.2162C236.27 81.3831 232.792 84.5793 228.385 86.8046C223.977 89.0298 219.003 90.1424 213.465 90.1424C207.761 90.1424 202.707 89.1916 198.3 87.2901C193.893 85.3481 190.435 82.3948 187.927 78.4298C185.461 74.4651 184.229 69.4281 184.229 63.319H200.968C200.968 66.6364 201.475 69.3067 202.485 71.3294C203.496 73.3524 204.933 74.8089 206.791 75.6989C208.693 76.5891 210.916 77.0339 213.465 77.0339C215.931 77.0339 218.095 76.4676 219.953 75.3348C221.855 74.1616 223.33 72.4623 224.381 70.237C225.434 68.012 225.96 65.3013 225.96 62.1051ZM286.22 90.1424C281.246 90.1424 276.779 89.333 272.817 87.7147C268.852 86.0964 265.478 83.8512 262.688 80.9787C259.937 78.0657 257.815 74.6875 256.319 70.8439C254.862 66.96 254.135 62.7928 254.135 58.3426V55.9152C254.135 50.858 254.862 46.2659 256.319 42.1394C257.773 37.9722 259.836 34.3917 262.504 31.3977C265.175 28.404 268.368 26.098 272.087 24.4797C275.809 22.8614 279.913 22.0522 284.401 22.0522C289.051 22.0522 293.156 22.8412 296.714 24.4188C300.272 25.9564 303.243 28.1409 305.629 30.9731C308.016 33.805 309.817 37.2034 311.028 41.1684C312.242 45.0927 312.847 49.4419 312.847 54.2161V60.9521H261.412V49.9072H297.079V48.6934C296.996 46.1448 296.512 43.8183 295.622 41.7145C294.732 39.5703 293.357 37.8709 291.497 36.617C289.639 35.3223 287.232 34.675 284.279 34.675C281.893 34.675 279.812 35.2009 278.032 36.2526C276.293 37.2643 274.838 38.7208 273.666 40.6223C272.532 42.4832 271.683 44.7085 271.117 47.2978C270.552 49.887 270.268 52.7593 270.268 55.9152V58.3426C270.268 61.0937 270.633 63.6426 271.36 65.989C272.129 68.3357 273.241 70.3787 274.696 72.1184C276.192 73.8177 277.972 75.1528 280.035 76.1238C282.136 77.0543 284.522 77.5196 287.19 77.5196C290.547 77.5196 293.58 76.8723 296.29 75.5777C299.038 74.2424 301.424 72.2802 303.448 69.6909L311.514 78.0657C310.14 80.0885 308.28 82.0304 305.935 83.8916C303.629 85.7525 300.839 87.2699 297.563 88.4431C294.289 89.5759 290.508 90.1424 286.22 90.1424ZM353.398 23.2658V34.7964H315.792V23.2658H353.398ZM325.859 7.12318H341.933V69.9944C341.933 71.9364 342.197 73.4332 342.722 74.4853C343.248 75.537 344.037 76.2452 345.088 76.6092C346.138 76.9733 347.391 77.1553 348.848 77.1553C349.899 77.1553 350.869 77.0947 351.759 76.9733C352.65 76.8519 353.398 76.7307 354.003 76.6092L354.065 88.6251C352.73 89.0702 351.213 89.4342 349.516 89.7175C347.857 90.0008 345.978 90.1424 343.874 90.1424C340.274 90.1424 337.122 89.5355 334.413 88.3216C331.703 87.0674 329.599 85.0648 328.103 82.3137C326.607 79.5222 325.859 75.8405 325.859 71.2688V7.12318Z" fill="#007DFA"/>
</svg>
