<?xml version="1.0" encoding="UTF-8" standalone="no"?><svg width="266" height="266" viewBox="0 0 266 266" fill="none" xmlns="http://www.w3.org/2000/svg">
<rect x="114" width="38" height="24" rx="4" fill="#D9ECFE"/>
<path d="M126.482 8.5H127.451V14.2187C127.451 14.7292 127.357 15.1628 127.17 15.5195C126.982 15.8763 126.718 16.1471 126.377 16.332C126.036 16.5169 125.633 16.6094 125.17 16.6094C124.732 16.6094 124.343 16.5299 124.002 16.3711C123.661 16.2096 123.393 15.9805 123.197 15.6836C123.002 15.3867 122.904 15.0339 122.904 14.625H123.857C123.857 14.8516 123.913 15.0495 124.025 15.2187C124.14 15.3854 124.296 15.5156 124.494 15.6094C124.692 15.7031 124.917 15.75 125.17 15.75C125.449 15.75 125.686 15.6914 125.881 15.5742C126.076 15.457 126.225 15.2852 126.326 15.0586C126.43 14.8294 126.482 14.5495 126.482 14.2187V8.5ZM133.049 14.0469V10.5H133.971V16.5H133.049V15.4844H132.986C132.846 15.7891 132.627 16.0482 132.33 16.2617C132.033 16.4727 131.658 16.5781 131.205 16.5781C130.83 16.5781 130.497 16.4961 130.205 16.332C129.913 16.1654 129.684 15.9154 129.518 15.582C129.351 15.2461 129.268 14.8229 129.268 14.3125V10.5H130.189V14.25C130.189 14.6875 130.312 15.0365 130.557 15.2969C130.804 15.5573 131.119 15.6875 131.502 15.6875C131.731 15.6875 131.964 15.6289 132.201 15.5117C132.441 15.3945 132.641 15.2148 132.803 14.9727C132.967 14.7305 133.049 14.4219 133.049 14.0469ZM136.581 8.5V16.5H135.659V8.5H136.581ZM138.863 18.75C138.707 18.75 138.568 18.737 138.445 18.7109C138.323 18.6875 138.238 18.6641 138.191 18.6406L138.426 17.8281C138.65 17.8854 138.848 17.9063 139.02 17.8906C139.191 17.875 139.344 17.7982 139.477 17.6602C139.612 17.5247 139.736 17.3047 139.848 17L140.02 16.5313L137.801 10.5H138.801L140.457 15.2812H140.52L142.176 10.5H143.176L140.629 17.375C140.514 17.6849 140.372 17.9414 140.203 18.1445C140.034 18.3503 139.837 18.5026 139.613 18.6016C139.392 18.7005 139.142 18.75 138.863 18.75Z" fill="#002C58"/>
<g clip-path="url(#clip0_518_194)">
<g clip-path="url(#clip1_518_194)">
<path d="M9.05518 44.6094C8.52132 44.6094 8.06299 44.4453 7.68018 44.1172C7.29736 43.7891 7.00309 43.319 6.79736 42.707C6.59424 42.0924 6.49268 41.3568 6.49268 40.5C6.49268 39.6458 6.59554 38.9115 6.80127 38.2969C7.007 37.6823 7.29997 37.2109 7.68018 36.8828C8.06299 36.5547 8.52132 36.3906 9.05518 36.3906C9.58903 36.3906 10.0461 36.5547 10.4263 36.8828C10.8091 37.2109 11.1034 37.6823 11.3091 38.2969C11.5148 38.9115 11.6177 39.6458 11.6177 40.5C11.6177 41.3568 11.5148 42.0924 11.3091 42.707C11.106 43.319 10.813 43.7891 10.4302 44.1172C10.0474 44.4453 9.58903 44.6094 9.05518 44.6094ZM9.05518 44.1562C9.70361 44.1562 10.2127 43.8346 10.5825 43.1914C10.9523 42.5456 11.1372 41.6484 11.1372 40.5C11.1372 39.7344 11.0526 39.0781 10.8833 38.5313C10.7166 37.9844 10.4784 37.5664 10.1685 37.2773C9.85856 36.9857 9.48747 36.8398 9.05518 36.8398C8.40674 36.8398 7.89762 37.1628 7.52783 37.8086C7.15804 38.4544 6.97314 39.3516 6.97314 40.5C6.97314 41.2656 7.05648 41.9219 7.22314 42.4687C7.38981 43.013 7.62809 43.431 7.93799 43.7227C8.25049 44.0117 8.62288 44.1562 9.05518 44.1562ZM13.3159 44.5L17.0308 36.9961V36.9531H12.7612V36.5H17.562V36.9687L13.8433 44.5H13.3159Z" fill="#B0D7FD"/>
<path d="M39.3655 36.5H40.5217L43.2405 43.1406H43.3342L46.053 36.5H47.2092V44.5H46.303V38.4219H46.2249L43.7249 44.5H42.8499L40.3499 38.4219H40.2717V44.5H39.3655V36.5ZM51.4641 44.625C50.9224 44.625 50.4472 44.4961 50.0383 44.2383C49.6321 43.9805 49.3144 43.6198 49.0852 43.1562C48.8586 42.6927 48.7454 42.151 48.7454 41.5312C48.7454 40.9062 48.8586 40.3607 49.0852 39.8945C49.3144 39.4284 49.6321 39.0664 50.0383 38.8086C50.4472 38.5508 50.9224 38.4219 51.4641 38.4219C52.0058 38.4219 52.4797 38.5508 52.886 38.8086C53.2948 39.0664 53.6125 39.4284 53.8391 39.8945C54.0683 40.3607 54.1829 40.9062 54.1829 41.5312C54.1829 42.151 54.0683 42.6927 53.8391 43.1562C53.6125 43.6198 53.2948 43.9805 52.886 44.2383C52.4797 44.4961 52.0058 44.625 51.4641 44.625ZM51.4641 43.7969C51.8756 43.7969 52.2141 43.6914 52.4797 43.4805C52.7454 43.2695 52.942 42.9922 53.0696 42.6484C53.1972 42.3047 53.261 41.9323 53.261 41.5312C53.261 41.1302 53.1972 40.7565 53.0696 40.4102C52.942 40.0638 52.7454 39.7839 52.4797 39.5703C52.2141 39.3568 51.8756 39.25 51.4641 39.25C51.0527 39.25 50.7141 39.3568 50.4485 39.5703C50.1829 39.7839 49.9862 40.0638 49.8586 40.4102C49.731 40.7565 49.6672 41.1302 49.6672 41.5312C49.6672 41.9323 49.731 42.3047 49.8586 42.6484C49.9862 42.9922 50.1829 43.2695 50.4485 43.4805C50.7141 43.6914 51.0527 43.7969 51.4641 43.7969Z" fill="#B0D7FD"/>
<path d="M75.3577 37.3594V36.5H81.3577V37.3594H78.842V44.5H77.8733V37.3594H75.3577ZM85.6926 42.0469V38.5H86.6145V44.5H85.6926V43.4844H85.6301C85.4895 43.7891 85.2708 44.0482 84.9739 44.2617C84.677 44.4727 84.302 44.5781 83.8489 44.5781C83.4739 44.5781 83.1405 44.4961 82.8489 44.332C82.5572 44.1654 82.328 43.9154 82.1614 43.582C81.9947 43.2461 81.9114 42.8229 81.9114 42.3125V38.5H82.8333V42.25C82.8333 42.6875 82.9556 43.0365 83.2004 43.2969C83.4478 43.5573 83.7629 43.6875 84.1458 43.6875C84.3749 43.6875 84.608 43.6289 84.845 43.5117C85.0846 43.3945 85.2851 43.2148 85.4465 42.9727C85.6106 42.7305 85.6926 42.4219 85.6926 42.0469Z" fill="#B0D7FD"/>
<path d="M109.994 44.5L107.806 36.5H108.791L110.462 43.0156H110.541L112.244 36.5H113.337L115.041 43.0156H115.119L116.791 36.5H117.775L115.587 44.5H114.587L112.822 38.125H112.759L110.994 44.5H109.994ZM120.814 44.625C120.236 44.625 119.737 44.4974 119.318 44.2422C118.901 43.9844 118.58 43.625 118.353 43.1641C118.129 42.7005 118.017 42.1615 118.017 41.5469C118.017 40.9323 118.129 40.3906 118.353 39.9219C118.58 39.4505 118.895 39.0833 119.298 38.8203C119.705 38.5547 120.179 38.4219 120.72 38.4219C121.033 38.4219 121.341 38.474 121.646 38.5781C121.951 38.6823 122.228 38.8516 122.478 39.0859C122.728 39.3177 122.927 39.625 123.076 40.0078C123.224 40.3906 123.298 40.862 123.298 41.4219V41.8125H118.673V41.0156H122.361C122.361 40.6771 122.293 40.375 122.158 40.1094C122.025 39.8437 121.835 39.6341 121.587 39.4805C121.343 39.3268 121.054 39.25 120.72 39.25C120.353 39.25 120.035 39.3411 119.767 39.5234C119.501 39.7031 119.297 39.9375 119.154 40.2266C119.011 40.5156 118.939 40.8255 118.939 41.1562V41.6875C118.939 42.1406 119.017 42.5247 119.173 42.8398C119.332 43.1523 119.552 43.3906 119.833 43.5547C120.115 43.7161 120.442 43.7969 120.814 43.7969C121.056 43.7969 121.275 43.763 121.47 43.6953C121.668 43.625 121.839 43.5208 121.982 43.3828C122.125 43.2422 122.236 43.0677 122.314 42.8594L123.205 43.1094C123.111 43.4115 122.953 43.6771 122.732 43.9062C122.511 44.1328 122.237 44.3099 121.912 44.4375C121.586 44.5625 121.22 44.625 120.814 44.625Z" fill="#B0D7FD"/>
<path d="M144.039 37.3594V36.5H150.039V37.3594H147.523V44.5H146.554V37.3594H144.039ZM152.331 40.8906V44.5H151.409V36.5H152.331V39.4375H152.409C152.549 39.1276 152.76 38.8815 153.042 38.6992C153.325 38.5143 153.703 38.4219 154.174 38.4219C154.583 38.4219 154.941 38.5039 155.249 38.668C155.556 38.8294 155.794 39.0781 155.963 39.4141C156.135 39.7474 156.221 40.1719 156.221 40.6875V44.5H155.299V40.75C155.299 40.2734 155.176 39.9049 154.928 39.6445C154.683 39.3815 154.344 39.25 153.909 39.25C153.607 39.25 153.336 39.3138 153.096 39.4414C152.859 39.569 152.672 39.7552 152.534 40C152.398 40.2448 152.331 40.5417 152.331 40.8906Z" fill="#B0D7FD"/>
<path d="M180.584 44.5V36.5H185.381V37.3594H181.552V40.0625H185.021V40.9219H181.552V44.5H180.584ZM186.85 44.5V38.5H187.741V39.4062H187.803C187.913 39.1094 188.111 38.8685 188.397 38.6836C188.684 38.4987 189.007 38.4062 189.366 38.4062C189.434 38.4062 189.518 38.4076 189.62 38.4102C189.721 38.4128 189.798 38.4167 189.85 38.4219V39.3594C189.819 39.3516 189.747 39.3398 189.635 39.3242C189.526 39.306 189.41 39.2969 189.288 39.2969C188.996 39.2969 188.736 39.3581 188.507 39.4805C188.28 39.6003 188.1 39.7669 187.968 39.9805C187.837 40.1914 187.772 40.4323 187.772 40.7031V44.5H186.85Z" fill="#B0D7FD"/>
<path d="M218.166 38.5C218.119 38.1042 217.929 37.7969 217.595 37.5781C217.262 37.3594 216.853 37.25 216.369 37.25C216.015 37.25 215.705 37.3073 215.439 37.4219C215.176 37.5365 214.97 37.694 214.822 37.8945C214.676 38.0951 214.603 38.3229 214.603 38.5781C214.603 38.7917 214.654 38.9753 214.756 39.1289C214.86 39.2799 214.993 39.4062 215.154 39.5078C215.316 39.6068 215.485 39.6888 215.662 39.7539C215.839 39.8164 216.002 39.8672 216.15 39.9062L216.963 40.125C217.171 40.1797 217.403 40.2552 217.658 40.3516C217.916 40.4479 218.162 40.5794 218.396 40.7461C218.633 40.9102 218.829 41.1211 218.982 41.3789C219.136 41.6367 219.213 41.9531 219.213 42.3281C219.213 42.7604 219.099 43.151 218.873 43.5C218.649 43.849 218.321 44.1263 217.888 44.332C217.459 44.5378 216.937 44.6406 216.322 44.6406C215.749 44.6406 215.253 44.5482 214.834 44.3633C214.417 44.1784 214.089 43.9206 213.849 43.5898C213.612 43.2591 213.478 42.875 213.447 42.4375H214.447C214.473 42.7396 214.575 42.9896 214.752 43.1875C214.931 43.3828 215.158 43.5286 215.431 43.625C215.707 43.7187 216.004 43.7656 216.322 43.7656C216.692 43.7656 217.024 43.7057 217.318 43.5859C217.612 43.4635 217.845 43.2943 218.017 43.0781C218.189 42.8594 218.275 42.6042 218.275 42.3125C218.275 42.0469 218.201 41.8307 218.052 41.6641C217.904 41.4974 217.709 41.362 217.467 41.2578C217.224 41.1536 216.963 41.0625 216.681 40.9844L215.697 40.7031C215.072 40.5234 214.577 40.2669 214.213 39.9336C213.848 39.6003 213.666 39.1641 213.666 38.625C213.666 38.1771 213.787 37.7865 214.029 37.4531C214.274 37.1172 214.602 36.8568 215.013 36.6719C215.427 36.4844 215.89 36.3906 216.4 36.3906C216.916 36.3906 217.374 36.4831 217.775 36.668C218.176 36.8503 218.494 37.1003 218.728 37.418C218.965 37.7357 219.09 38.0964 219.103 38.5H218.166ZM222.446 44.6406C222.066 44.6406 221.721 44.569 221.411 44.4258C221.101 44.2799 220.855 44.0703 220.673 43.7969C220.49 43.5208 220.399 43.1875 220.399 42.7969C220.399 42.4531 220.467 42.1745 220.602 41.9609C220.738 41.7448 220.919 41.5755 221.145 41.4531C221.372 41.3307 221.622 41.2396 221.895 41.1797C222.171 41.1172 222.449 41.0677 222.727 41.0313C223.092 40.9844 223.387 40.9492 223.614 40.9258C223.843 40.8997 224.01 40.8568 224.114 40.7969C224.221 40.737 224.274 40.6328 224.274 40.4844V40.4531C224.274 40.0677 224.169 39.7682 223.958 39.5547C223.749 39.3411 223.433 39.2344 223.009 39.2344C222.568 39.2344 222.223 39.3307 221.973 39.5234C221.723 39.7161 221.548 39.9219 221.446 40.1406L220.571 39.8281C220.727 39.4635 220.936 39.1797 221.196 38.9766C221.459 38.7708 221.746 38.6276 222.055 38.5469C222.368 38.4635 222.675 38.4219 222.977 38.4219C223.17 38.4219 223.391 38.4453 223.641 38.4922C223.894 38.5365 224.137 38.6289 224.372 38.7695C224.609 38.9102 224.805 39.1224 224.962 39.4062C225.118 39.6901 225.196 40.0703 225.196 40.5469V44.5H224.274V43.6875H224.227C224.165 43.8177 224.061 43.957 223.915 44.1055C223.769 44.2539 223.575 44.3802 223.333 44.4844C223.091 44.5885 222.795 44.6406 222.446 44.6406ZM222.587 43.8125C222.951 43.8125 223.259 43.7409 223.509 43.5977C223.761 43.4544 223.951 43.2695 224.079 43.043C224.209 42.8164 224.274 42.5781 224.274 42.3281V41.4844C224.235 41.5312 224.149 41.5742 224.016 41.6133C223.886 41.6497 223.735 41.6823 223.563 41.7109C223.394 41.737 223.229 41.7604 223.067 41.7812C222.908 41.7995 222.779 41.8151 222.68 41.8281C222.441 41.8594 222.217 41.9102 222.009 41.9805C221.803 42.0482 221.636 42.151 221.509 42.2891C221.384 42.4245 221.321 42.6094 221.321 42.8437C221.321 43.1641 221.44 43.4062 221.677 43.5703C221.916 43.7318 222.219 43.8125 222.587 43.8125Z" fill="#D9ECFE"/>
<path d="M252.641 38.5C252.594 38.1042 252.404 37.7969 252.07 37.5781C251.737 37.3594 251.328 37.25 250.844 37.25C250.49 37.25 250.18 37.3073 249.914 37.4219C249.651 37.5365 249.445 37.694 249.297 37.8945C249.151 38.0951 249.078 38.3229 249.078 38.5781C249.078 38.7917 249.129 38.9753 249.23 39.1289C249.335 39.2799 249.467 39.4062 249.629 39.5078C249.79 39.6068 249.96 39.6888 250.137 39.7539C250.314 39.8164 250.477 39.8672 250.625 39.9062L251.438 40.125C251.646 40.1797 251.878 40.2552 252.133 40.3516C252.391 40.4479 252.637 40.5794 252.871 40.7461C253.108 40.9102 253.303 41.1211 253.457 41.3789C253.611 41.6367 253.688 41.9531 253.688 42.3281C253.688 42.7604 253.574 43.151 253.348 43.5C253.124 43.849 252.796 44.1263 252.363 44.332C251.934 44.5378 251.411 44.6406 250.797 44.6406C250.224 44.6406 249.728 44.5482 249.309 44.3633C248.892 44.1784 248.564 43.9206 248.324 43.5898C248.087 43.2591 247.953 42.875 247.922 42.4375H248.922C248.948 42.7396 249.049 42.9896 249.227 43.1875C249.406 43.3828 249.633 43.5286 249.906 43.625C250.182 43.7187 250.479 43.7656 250.797 43.7656C251.167 43.7656 251.499 43.7057 251.793 43.5859C252.087 43.4635 252.32 43.2943 252.492 43.0781C252.664 42.8594 252.75 42.6042 252.75 42.3125C252.75 42.0469 252.676 41.8307 252.527 41.6641C252.379 41.4974 252.184 41.362 251.941 41.2578C251.699 41.1536 251.438 41.0625 251.156 40.9844L250.172 40.7031C249.547 40.5234 249.052 40.2669 248.687 39.9336C248.323 39.6003 248.141 39.1641 248.141 38.625C248.141 38.1771 248.262 37.7865 248.504 37.4531C248.749 37.1172 249.077 36.8568 249.488 36.6719C249.902 36.4844 250.365 36.3906 250.875 36.3906C251.391 36.3906 251.849 36.4831 252.25 36.668C252.651 36.8503 252.969 37.1003 253.203 37.418C253.44 37.7357 253.565 38.0964 253.578 38.5H252.641ZM258.937 42.0469V38.5H259.858V44.5H258.937V43.4844H258.874C258.733 43.7891 258.515 44.0482 258.218 44.2617C257.921 44.4727 257.546 44.5781 257.093 44.5781C256.718 44.5781 256.384 44.4961 256.093 44.332C255.801 44.1654 255.572 43.9154 255.405 43.582C255.239 43.2461 255.155 42.8229 255.155 42.3125V38.5H256.077V42.25C256.077 42.6875 256.2 43.0365 256.444 43.2969C256.692 43.5573 257.007 43.6875 257.39 43.6875C257.619 43.6875 257.852 43.6289 258.089 43.5117C258.328 43.3945 258.529 43.2148 258.69 42.9727C258.854 42.7305 258.937 42.4219 258.937 42.0469Z" fill="#D9ECFE"/>
</g>
<g clip-path="url(#clip2_518_194)">
<rect y="63.6667" width="24" height="24" rx="4" fill="#DFE0E1"/>
<path d="M6.51855 80.1667V79.7957L9.1084 76.8113C9.47819 76.3842 9.77116 76.0222 9.9873 75.7253C10.2035 75.4285 10.3584 75.1602 10.4521 74.9207C10.5459 74.6811 10.5928 74.4311 10.5928 74.1707C10.5928 73.8451 10.516 73.5574 10.3623 73.3074C10.2113 73.0548 10.0042 72.8582 9.74121 72.7175C9.48079 72.5769 9.18392 72.5066 8.85059 72.5066C8.50163 72.5066 8.19564 72.5834 7.93262 72.7371C7.6696 72.8907 7.46387 73.099 7.31543 73.3621C7.1696 73.6251 7.09668 73.9207 7.09668 74.2488H6.62402C6.62402 73.8347 6.72038 73.4623 6.91309 73.1316C7.10579 72.8009 7.37012 72.5391 7.70605 72.3464C8.0446 72.1537 8.43001 72.0574 8.8623 72.0574C9.28678 72.0574 9.66439 72.1498 9.99512 72.3347C10.3258 72.5196 10.5863 72.7722 10.7764 73.0925C10.9665 73.4102 11.0615 73.7696 11.0615 74.1707C11.0615 74.4649 11.0107 74.7488 10.9092 75.0222C10.8102 75.2931 10.6396 75.5964 10.3975 75.9324C10.1553 76.2657 9.82064 76.6772 9.39355 77.1667L7.22168 79.6707V79.7136H11.4209V80.1667H6.51855ZM13.4932 80.1667L17.208 72.6628V72.6199H12.9385V72.1667H17.7393V72.6355L14.0205 80.1667H13.4932Z" fill="#002C58"/>
<path d="M47.6555 72.1667V80.1667H46.6868V73.1824H46.6399L44.6868 74.4792V73.4949L46.6868 72.1667H47.6555Z" fill="#B0D7FD"/>
<path d="M78.6409 80.1667V79.4636L81.2815 76.573C81.5914 76.2345 81.8466 75.9402 82.0471 75.6902C82.2476 75.4376 82.3961 75.2006 82.4924 74.9792C82.5914 74.7553 82.6409 74.5209 82.6409 74.2761C82.6409 73.9949 82.5732 73.7514 82.4377 73.5457C82.3049 73.3399 82.1226 73.1811 81.8909 73.0691C81.6591 72.9571 81.3987 72.9011 81.1096 72.9011C80.8023 72.9011 80.5341 72.9649 80.3049 73.0925C80.0784 73.2175 79.9026 73.3933 79.7776 73.6199C79.6552 73.8464 79.594 74.1121 79.594 74.4167H78.6721C78.6721 73.948 78.7802 73.5365 78.9963 73.1824C79.2125 72.8282 79.5068 72.5522 79.8792 72.3542C80.2542 72.1563 80.6747 72.0574 81.1409 72.0574C81.6096 72.0574 82.025 72.1563 82.387 72.3542C82.7489 72.5522 83.0328 72.8191 83.2385 73.155C83.4443 73.491 83.5471 73.8647 83.5471 74.2761C83.5471 74.5704 83.4937 74.8582 83.387 75.1394C83.2828 75.4181 83.1005 75.7292 82.8401 76.073C82.5823 76.4141 82.2242 76.8308 81.7659 77.323L79.969 79.2449V79.3074H83.6877V80.1667H78.6409Z" fill="#B0D7FD"/>
<path d="M115.744 80.2761C115.228 80.2761 114.768 80.1876 114.365 80.0105C113.964 79.8334 113.645 79.5873 113.408 79.2722C113.173 78.9545 113.046 78.586 113.025 78.1667H114.009C114.03 78.4246 114.119 78.6472 114.275 78.8347C114.431 79.0196 114.636 79.1628 114.888 79.2644C115.141 79.366 115.421 79.4167 115.728 79.4167C116.072 79.4167 116.376 79.3569 116.642 79.2371C116.908 79.1173 117.116 78.9506 117.267 78.7371C117.418 78.5235 117.494 78.2761 117.494 77.9949C117.494 77.7006 117.421 77.4415 117.275 77.2175C117.129 76.991 116.916 76.8139 116.634 76.6863C116.353 76.5587 116.009 76.4949 115.603 76.4949H114.962V75.6355H115.603C115.921 75.6355 116.199 75.5782 116.439 75.4636C116.681 75.349 116.87 75.1876 117.005 74.9792C117.143 74.7709 117.212 74.5261 117.212 74.2449C117.212 73.974 117.153 73.7384 117.033 73.5378C116.913 73.3373 116.744 73.1811 116.525 73.0691C116.309 72.9571 116.054 72.9011 115.759 72.9011C115.483 72.9011 115.223 72.9519 114.978 73.0535C114.736 73.1524 114.538 73.297 114.384 73.4871C114.231 73.6746 114.147 73.9011 114.134 74.1667H113.197C113.212 73.7475 113.339 73.3803 113.576 73.0652C113.813 72.7475 114.123 72.5001 114.505 72.323C114.891 72.1459 115.314 72.0574 115.775 72.0574C116.27 72.0574 116.694 72.1576 117.048 72.3582C117.403 72.5561 117.675 72.8178 117.865 73.1433C118.055 73.4688 118.15 73.8204 118.15 74.198C118.15 74.6485 118.031 75.0326 117.794 75.3503C117.56 75.6681 117.241 75.8881 116.837 76.0105V76.073C117.343 76.1563 117.737 76.3712 118.021 76.7175C118.305 77.0613 118.447 77.4871 118.447 77.9949C118.447 78.4298 118.328 78.8204 118.091 79.1667C117.857 79.5105 117.537 79.7813 117.13 79.9792C116.724 80.1772 116.262 80.2761 115.744 80.2761Z" fill="#B0D7FD"/>
<path d="M147.397 78.5261V77.7292L150.913 72.1667H151.491V73.4011H151.101L148.444 77.6042V77.6667H153.179V78.5261H147.397ZM151.163 80.1667V78.2839V77.9128V72.1667H152.085V80.1667H151.163Z" fill="#B0D7FD"/>
<path d="M184.839 80.2761C184.381 80.2761 183.968 80.185 183.601 80.0027C183.234 79.8204 182.939 79.5704 182.718 79.2527C182.497 78.935 182.376 78.573 182.355 78.1667H183.292C183.329 78.5287 183.493 78.8282 183.784 79.0652C184.079 79.2996 184.43 79.4167 184.839 79.4167C185.167 79.4167 185.459 79.3399 185.714 79.1863C185.972 79.0326 186.174 78.8217 186.32 78.5535C186.468 78.2826 186.542 77.9766 186.542 77.6355C186.542 77.2865 186.465 76.9753 186.312 76.7019C186.161 76.4259 185.952 76.2084 185.687 76.0496C185.421 75.8907 185.118 75.81 184.777 75.8074C184.532 75.8048 184.281 75.8425 184.023 75.9207C183.765 75.9962 183.553 76.0938 183.386 76.2136L182.48 76.1042L182.964 72.1667H187.12V73.0261H183.777L183.495 75.3855H183.542C183.706 75.2553 183.912 75.1472 184.159 75.0613C184.407 74.9753 184.665 74.9324 184.933 74.9324C185.422 74.9324 185.859 75.0496 186.241 75.2839C186.627 75.5157 186.929 75.8334 187.148 76.2371C187.369 76.6407 187.48 77.1016 187.48 77.6199C187.48 78.1303 187.365 78.586 187.136 78.9871C186.909 79.3855 186.597 79.7006 186.198 79.9324C185.8 80.1615 185.347 80.2761 184.839 80.2761Z" fill="#B0D7FD"/>
<path d="M219.481 80.2761C219.153 80.2709 218.824 80.2084 218.496 80.0886C218.168 79.9688 217.869 79.767 217.598 79.4832C217.327 79.1967 217.11 78.81 216.946 78.323C216.781 77.8334 216.699 77.2188 216.699 76.4792C216.699 75.7709 216.766 75.1433 216.899 74.5964C217.031 74.047 217.224 73.5847 217.477 73.2097C217.729 72.8321 218.034 72.5457 218.391 72.3503C218.75 72.155 219.155 72.0574 219.606 72.0574C220.054 72.0574 220.452 72.1472 220.801 72.3269C221.153 72.504 221.439 72.7514 221.66 73.0691C221.882 73.3868 222.025 73.7527 222.09 74.1667H221.137C221.048 73.8074 220.877 73.5092 220.621 73.2722C220.366 73.0352 220.028 72.9167 219.606 72.9167C218.986 72.9167 218.498 73.1863 218.141 73.7253C217.787 74.2644 217.608 75.0209 217.606 75.9949H217.668C217.814 75.7735 217.987 75.5847 218.188 75.4285C218.391 75.2696 218.615 75.1472 218.86 75.0613C219.104 74.9753 219.364 74.9324 219.637 74.9324C220.095 74.9324 220.515 75.047 220.895 75.2761C221.275 75.5027 221.58 75.8165 221.809 76.2175C222.038 76.616 222.153 77.073 222.153 77.5886C222.153 78.0834 222.042 78.5365 221.821 78.948C221.599 79.3569 221.288 79.6824 220.887 79.9246C220.489 80.1641 220.02 80.2813 219.481 80.2761ZM219.481 79.4167C219.809 79.4167 220.103 79.3347 220.364 79.1707C220.627 79.0066 220.834 78.7865 220.985 78.5105C221.138 78.2345 221.215 77.9272 221.215 77.5886C221.215 77.2579 221.141 76.9571 220.992 76.6863C220.847 76.4128 220.645 76.1954 220.387 76.0339C220.132 75.8725 219.84 75.7917 219.512 75.7917C219.265 75.7917 219.034 75.8412 218.821 75.9402C218.607 76.0365 218.42 76.1694 218.258 76.3386C218.099 76.5079 217.974 76.7019 217.883 76.9207C217.792 77.1368 217.746 77.3647 217.746 77.6042C217.746 77.922 217.821 78.2188 217.969 78.4949C218.12 78.7709 218.326 78.9936 218.586 79.1628C218.849 79.3321 219.147 79.4167 219.481 79.4167Z" fill="#B0D7FD"/>
<path d="M251.936 80.1667L255.514 73.0886V73.0261H251.389V72.1667H256.514V73.073L252.952 80.1667H251.936Z" fill="#B0D7FD"/>
</g>
<g clip-path="url(#clip3_518_194)">
<rect y="99.3333" width="24" height="24" rx="4" fill="#DFE0E1"/>
<path d="M6.23389 115.833V115.462L8.82373 112.478C9.19352 112.051 9.48649 111.689 9.70264 111.392C9.91878 111.095 10.0737 110.827 10.1675 110.587C10.2612 110.348 10.3081 110.098 10.3081 109.837C10.3081 109.512 10.2313 109.224 10.0776 108.974C9.9266 108.721 9.71956 108.525 9.45654 108.384C9.19613 108.243 8.89925 108.173 8.56592 108.173C8.21696 108.173 7.91097 108.25 7.64795 108.404C7.38493 108.557 7.1792 108.766 7.03076 109.029C6.88493 109.292 6.81201 109.587 6.81201 109.915H6.33936C6.33936 109.501 6.43571 109.129 6.62842 108.798C6.82113 108.467 7.08545 108.206 7.42139 108.013C7.75993 107.82 8.14535 107.724 8.57764 107.724C9.00212 107.724 9.37972 107.816 9.71045 108.001C10.0412 108.186 10.3016 108.439 10.4917 108.759C10.6818 109.077 10.7769 109.436 10.7769 109.837C10.7769 110.131 10.7261 110.415 10.6245 110.689C10.5256 110.96 10.355 111.263 10.1128 111.599C9.87061 111.932 9.53597 112.344 9.10889 112.833L6.93701 115.337V115.38H11.1362V115.833H6.23389ZM15.3882 115.943C14.9038 115.943 14.4676 115.846 14.0796 115.654C13.6916 115.458 13.3843 115.195 13.1577 114.865C12.9338 114.534 12.8231 114.163 12.8257 113.751C12.8231 113.426 12.8921 113.12 13.0327 112.833C13.1759 112.547 13.3713 112.303 13.6187 112.103C13.866 111.9 14.1486 111.764 14.4663 111.697V111.661C14.0627 111.534 13.7332 111.298 13.478 110.954C13.2254 110.611 13.0991 110.221 13.0991 109.786C13.0991 109.398 13.1994 109.049 13.3999 108.74C13.603 108.427 13.8778 108.18 14.2241 107.997C14.5705 107.815 14.9585 107.724 15.3882 107.724C15.8101 107.724 16.1942 107.815 16.5405 107.997C16.8869 108.177 17.1616 108.423 17.3647 108.736C17.5705 109.045 17.6733 109.396 17.6733 109.786C17.6733 110.219 17.547 110.608 17.2944 110.954C17.0444 111.298 16.7163 111.534 16.3101 111.661V111.697C16.6252 111.762 16.9051 111.896 17.1499 112.099C17.3973 112.299 17.5913 112.544 17.7319 112.833C17.8752 113.12 17.9481 113.426 17.9507 113.751C17.9481 114.163 17.8335 114.534 17.6069 114.865C17.383 115.195 17.077 115.458 16.689 115.654C16.3035 115.846 15.87 115.943 15.3882 115.943ZM15.3882 115.49C15.7866 115.49 16.1421 115.411 16.4546 115.255C16.7671 115.099 17.0132 114.888 17.1929 114.622C17.3726 114.354 17.4637 114.055 17.4663 113.724C17.4637 113.388 17.37 113.083 17.1851 112.81C17.0028 112.536 16.7554 112.319 16.4429 112.157C16.1304 111.996 15.7788 111.915 15.3882 111.915C14.995 111.915 14.6408 111.996 14.3257 112.157C14.0132 112.319 13.7645 112.536 13.5796 112.81C13.3973 113.083 13.3075 113.388 13.3101 113.724C13.3075 114.055 13.396 114.354 13.5757 114.622C13.758 114.888 14.0054 115.099 14.3179 115.255C14.633 115.411 14.9897 115.49 15.3882 115.49ZM15.3882 111.493C15.7241 111.493 16.0275 111.418 16.2983 111.267C16.5718 111.116 16.7892 110.913 16.9507 110.657C17.1121 110.402 17.1929 110.118 17.1929 109.806C17.1929 109.493 17.1121 109.215 16.9507 108.97C16.7918 108.723 16.5757 108.529 16.3022 108.388C16.0314 108.245 15.7267 108.173 15.3882 108.173C15.047 108.173 14.7397 108.245 14.4663 108.388C14.1929 108.529 13.9767 108.723 13.8179 108.97C13.659 109.215 13.5796 109.493 13.5796 109.806C13.5796 110.118 13.659 110.402 13.8179 110.657C13.9793 110.913 14.1968 111.116 14.4702 111.267C14.7437 111.418 15.0496 111.493 15.3882 111.493Z" fill="#002C58"/>
<path d="M46.573 115.943C46.0365 115.943 45.5626 115.848 45.1511 115.657C44.7423 115.465 44.4233 115.2 44.1941 114.865C43.9649 114.526 43.8516 114.141 43.8542 113.708C43.8516 113.37 43.9181 113.057 44.0535 112.771C44.1889 112.482 44.3738 112.241 44.6082 112.048C44.8451 111.853 45.1095 111.729 45.4011 111.677V111.63C45.0183 111.531 44.7136 111.316 44.4871 110.986C44.2605 110.652 44.1485 110.273 44.1511 109.849C44.1485 109.443 44.2514 109.079 44.4597 108.759C44.6681 108.439 44.9545 108.186 45.3191 108.001C45.6863 107.816 46.1042 107.724 46.573 107.724C47.0365 107.724 47.4506 107.816 47.8152 108.001C48.1798 108.186 48.4662 108.439 48.6746 108.759C48.8855 109.079 48.9923 109.443 48.9949 109.849C48.9923 110.273 48.8764 110.652 48.6472 110.986C48.4207 111.316 48.1199 111.531 47.7449 111.63V111.677C48.0339 111.729 48.2944 111.853 48.5261 112.048C48.7579 112.241 48.9428 112.482 49.0808 112.771C49.2188 113.057 49.2891 113.37 49.2917 113.708C49.2891 114.141 49.172 114.526 48.9402 114.865C48.711 115.2 48.392 115.465 47.9832 115.657C47.5769 115.848 47.1069 115.943 46.573 115.943ZM46.573 115.083C46.935 115.083 47.2475 115.025 47.5105 114.907C47.7735 114.79 47.9766 114.625 48.1199 114.411C48.2631 114.198 48.336 113.948 48.3386 113.661C48.336 113.359 48.2579 113.092 48.1042 112.861C47.9506 112.629 47.741 112.447 47.4753 112.314C47.2123 112.181 46.9115 112.115 46.573 112.115C46.2319 112.115 45.9272 112.181 45.6589 112.314C45.3933 112.447 45.1837 112.629 45.03 112.861C44.879 113.092 44.8048 113.359 44.8074 113.661C44.8048 113.948 44.8738 114.198 45.0144 114.411C45.1576 114.625 45.3621 114.79 45.6277 114.907C45.8933 115.025 46.2084 115.083 46.573 115.083ZM46.573 111.286C46.8595 111.286 47.1134 111.229 47.3347 111.115C47.5587 111 47.7345 110.84 47.8621 110.634C47.9897 110.428 48.0548 110.187 48.0574 109.911C48.0548 109.641 47.991 109.405 47.866 109.204C47.741 109.001 47.5678 108.845 47.3464 108.736C47.1251 108.624 46.8673 108.568 46.573 108.568C46.2735 108.568 46.0118 108.624 45.7878 108.736C45.5639 108.845 45.3907 109.001 45.2683 109.204C45.1459 109.405 45.086 109.641 45.0886 109.911C45.086 110.187 45.1472 110.428 45.2722 110.634C45.3998 110.84 45.5756 111 45.7996 111.115C46.0235 111.229 46.2813 111.286 46.573 111.286Z" fill="#B0D7FD"/>
<rect x="69.1428" y="99.3333" width="24" height="24" rx="4" fill="#002C58"/>
<path d="M81.0857 107.724C81.4138 107.726 81.7419 107.789 82.0701 107.911C82.3982 108.034 82.6977 108.237 82.9685 108.521C83.2393 108.802 83.4568 109.186 83.6208 109.673C83.7849 110.16 83.8669 110.771 83.8669 111.505C83.8669 112.216 83.7992 112.848 83.6638 113.4C83.531 113.949 83.3383 114.413 83.0857 114.79C82.8357 115.168 82.531 115.454 82.1716 115.65C81.8149 115.845 81.4112 115.943 80.9607 115.943C80.5128 115.943 80.113 115.854 79.7615 115.677C79.4125 115.497 79.1261 115.249 78.9021 114.931C78.6807 114.611 78.5388 114.24 78.4763 113.818H79.4294C79.5154 114.185 79.686 114.488 79.9412 114.728C80.199 114.965 80.5388 115.083 80.9607 115.083C81.5779 115.083 82.0649 114.814 82.4216 114.275C82.781 113.736 82.9607 112.974 82.9607 111.99H82.8982C82.7524 112.208 82.5792 112.397 82.3787 112.556C82.1781 112.715 81.9555 112.837 81.7107 112.923C81.4659 113.009 81.2055 113.052 80.9294 113.052C80.4711 113.052 80.0505 112.939 79.6677 112.712C79.2875 112.483 78.9828 112.169 78.7537 111.771C78.5271 111.37 78.4138 110.911 78.4138 110.396C78.4138 109.906 78.5232 109.458 78.7419 109.052C78.9633 108.643 79.2732 108.318 79.6716 108.075C80.0727 107.833 80.544 107.716 81.0857 107.724ZM81.0857 108.583C80.7576 108.583 80.462 108.665 80.199 108.829C79.9386 108.991 79.7315 109.21 79.5779 109.486C79.4268 109.759 79.3513 110.062 79.3513 110.396C79.3513 110.729 79.4242 111.032 79.5701 111.306C79.7185 111.577 79.9203 111.793 80.1755 111.954C80.4333 112.113 80.7263 112.193 81.0544 112.193C81.3018 112.193 81.5323 112.144 81.7458 112.048C81.9594 111.949 82.1456 111.815 82.3044 111.646C82.4659 111.474 82.5922 111.28 82.6833 111.064C82.7745 110.845 82.8201 110.617 82.8201 110.38C82.8201 110.068 82.7445 109.775 82.5935 109.501C82.4451 109.228 82.2393 109.006 81.9763 108.837C81.7159 108.668 81.419 108.583 81.0857 108.583Z" fill="#D9ECFE"/>
<path d="M113.361 107.833V115.833H112.392V108.849H112.345L110.392 110.146V109.161L112.392 107.833H113.361ZM118.271 115.943C117.682 115.943 117.181 115.782 116.767 115.462C116.353 115.139 116.037 114.672 115.818 114.06C115.599 113.445 115.49 112.703 115.49 111.833C115.49 110.969 115.599 110.23 115.818 109.618C116.039 109.004 116.357 108.535 116.771 108.212C117.188 107.887 117.688 107.724 118.271 107.724C118.854 107.724 119.353 107.887 119.767 108.212C120.184 108.535 120.501 109.004 120.72 109.618C120.942 110.23 121.052 110.969 121.052 111.833C121.052 112.703 120.943 113.445 120.724 114.06C120.505 114.672 120.189 115.139 119.775 115.462C119.361 115.782 118.86 115.943 118.271 115.943ZM118.271 115.083C118.854 115.083 119.307 114.802 119.63 114.24C119.953 113.677 120.115 112.875 120.115 111.833C120.115 111.141 120.041 110.551 119.892 110.064C119.746 109.577 119.535 109.206 119.259 108.95C118.986 108.695 118.656 108.568 118.271 108.568C117.693 108.568 117.241 108.853 116.916 109.423C116.59 109.991 116.427 110.794 116.427 111.833C116.427 112.526 116.5 113.115 116.646 113.599C116.792 114.083 117.001 114.452 117.275 114.704C117.551 114.957 117.883 115.083 118.271 115.083Z" fill="#B0D7FD"/>
<path d="M148.813 107.833V115.833H147.844V108.849H147.797L145.844 110.146V109.161L147.844 107.833H148.813ZM153.926 107.833V115.833H152.958V108.849H152.911L150.958 110.146V109.161L152.958 107.833H153.926Z" fill="#B0D7FD"/>
<path d="M182.611 107.833V115.833H181.642V108.849H181.595L179.642 110.146V109.161L181.642 107.833H182.611ZM184.912 115.833V115.13L187.552 112.24C187.862 111.901 188.118 111.607 188.318 111.357C188.519 111.104 188.667 110.867 188.763 110.646C188.862 110.422 188.912 110.187 188.912 109.943C188.912 109.661 188.844 109.418 188.709 109.212C188.576 109.006 188.394 108.848 188.162 108.736C187.93 108.624 187.67 108.568 187.381 108.568C187.073 108.568 186.805 108.631 186.576 108.759C186.349 108.884 186.174 109.06 186.049 109.286C185.926 109.513 185.865 109.779 185.865 110.083H184.943C184.943 109.615 185.051 109.203 185.267 108.849C185.483 108.495 185.778 108.219 186.15 108.021C186.525 107.823 186.946 107.724 187.412 107.724C187.881 107.724 188.296 107.823 188.658 108.021C189.02 108.219 189.304 108.486 189.51 108.822C189.715 109.157 189.818 109.531 189.818 109.943C189.818 110.237 189.765 110.525 189.658 110.806C189.554 111.085 189.372 111.396 189.111 111.74C188.853 112.081 188.495 112.497 188.037 112.99L186.24 114.911V114.974H189.959V115.833H184.912Z" fill="#B0D7FD"/>
<path d="M217.01 107.833V115.833H216.042V108.849H215.995L214.042 110.146V109.161L216.042 107.833H217.01ZM222.014 115.943C221.499 115.943 221.039 115.854 220.635 115.677C220.234 115.5 219.915 115.254 219.678 114.939C219.444 114.621 219.316 114.253 219.296 113.833H220.28C220.301 114.091 220.389 114.314 220.546 114.501C220.702 114.686 220.906 114.829 221.159 114.931C221.412 115.032 221.691 115.083 221.999 115.083C222.343 115.083 222.647 115.023 222.913 114.904C223.178 114.784 223.387 114.617 223.538 114.404C223.689 114.19 223.764 113.943 223.764 113.661C223.764 113.367 223.691 113.108 223.546 112.884C223.4 112.657 223.186 112.48 222.905 112.353C222.624 112.225 222.28 112.161 221.874 112.161H221.233V111.302H221.874C222.191 111.302 222.47 111.245 222.71 111.13C222.952 111.016 223.141 110.854 223.276 110.646C223.414 110.437 223.483 110.193 223.483 109.911C223.483 109.641 223.423 109.405 223.303 109.204C223.184 109.004 223.014 108.848 222.796 108.736C222.58 108.624 222.324 108.568 222.03 108.568C221.754 108.568 221.494 108.618 221.249 108.72C221.007 108.819 220.809 108.963 220.655 109.154C220.501 109.341 220.418 109.568 220.405 109.833H219.468C219.483 109.414 219.609 109.047 219.846 108.732C220.083 108.414 220.393 108.167 220.776 107.99C221.162 107.812 221.585 107.724 222.046 107.724C222.54 107.724 222.965 107.824 223.319 108.025C223.673 108.223 223.945 108.484 224.135 108.81C224.326 109.135 224.421 109.487 224.421 109.865C224.421 110.315 224.302 110.699 224.065 111.017C223.831 111.335 223.512 111.555 223.108 111.677V111.74C223.613 111.823 224.008 112.038 224.292 112.384C224.576 112.728 224.718 113.154 224.718 113.661C224.718 114.096 224.599 114.487 224.362 114.833C224.128 115.177 223.807 115.448 223.401 115.646C222.995 115.844 222.533 115.943 222.014 115.943Z" fill="#B0D7FD"/>
<path d="M251.555 107.833V115.833H250.586V108.849H250.54L248.586 110.146V109.161L250.586 107.833H251.555ZM253.668 114.193V113.396L257.184 107.833H257.762V109.068H257.372L254.715 113.271V113.333H259.45V114.193H253.668ZM257.434 115.833V113.95V113.579V107.833H258.356V115.833H257.434Z" fill="#B0D7FD"/>
</g>
<g clip-path="url(#clip4_518_194)">
<rect y="135" width="24" height="24" rx="4" fill="#DFE0E1"/>
<path d="M6.2876 151.5V151.129L8.87744 148.145C9.24723 147.717 9.5402 147.355 9.75635 147.059C9.97249 146.762 10.1274 146.493 10.2212 146.254C10.3149 146.014 10.3618 145.764 10.3618 145.504C10.3618 145.178 10.285 144.891 10.1313 144.641C9.98031 144.388 9.77327 144.191 9.51025 144.051C9.24984 143.91 8.95296 143.84 8.61963 143.84C8.27067 143.84 7.96468 143.917 7.70166 144.07C7.43864 144.224 7.23291 144.432 7.08447 144.695C6.93864 144.958 6.86572 145.254 6.86572 145.582H6.39307C6.39307 145.168 6.48942 144.796 6.68213 144.465C6.87484 144.134 7.13916 143.872 7.4751 143.68C7.81364 143.487 8.19906 143.391 8.63135 143.391C9.05583 143.391 9.43343 143.483 9.76416 143.668C10.0949 143.853 10.3553 144.105 10.5454 144.426C10.7355 144.743 10.8306 145.103 10.8306 145.504C10.8306 145.798 10.7798 146.082 10.6782 146.355C10.5793 146.626 10.4087 146.93 10.1665 147.266C9.92432 147.599 9.58968 148.01 9.1626 148.5L6.99072 151.004V151.047H11.1899V151.5H6.2876ZM15.3208 143.391C15.6567 143.391 15.9757 143.462 16.2778 143.605C16.5799 143.749 16.8468 143.97 17.0786 144.27C17.313 144.566 17.4966 144.952 17.6294 145.426C17.7648 145.897 17.8325 146.465 17.8325 147.129C17.8325 147.725 17.7843 148.293 17.688 148.832C17.5942 149.368 17.4445 149.846 17.2388 150.266C17.033 150.682 16.7648 151.01 16.4341 151.25C16.1034 151.49 15.701 151.609 15.2271 151.609C14.813 151.609 14.4497 151.52 14.1372 151.34C13.8247 151.16 13.5734 150.911 13.3833 150.594C13.1958 150.273 13.0825 149.904 13.0435 149.484H13.5278C13.5825 149.971 13.757 150.372 14.0513 150.687C14.3455 151 14.7375 151.156 15.2271 151.156C15.9172 151.156 16.4458 150.816 16.813 150.137C17.1802 149.457 17.3638 148.484 17.3638 147.219H17.3208C17.2166 147.469 17.0617 147.69 16.856 147.883C16.6528 148.073 16.4172 148.221 16.1489 148.328C15.8807 148.435 15.5981 148.488 15.3013 148.488C14.8664 148.488 14.4692 148.378 14.1099 148.156C13.7505 147.935 13.464 147.632 13.2505 147.246C13.0369 146.861 12.9302 146.424 12.9302 145.938C12.9302 145.479 13.0291 145.056 13.2271 144.668C13.4276 144.28 13.7062 143.97 14.063 143.738C14.4224 143.504 14.8416 143.388 15.3208 143.391ZM15.3208 143.844C14.9536 143.844 14.6255 143.937 14.3364 144.125C14.05 144.312 13.8234 144.565 13.6567 144.883C13.4927 145.201 13.4106 145.552 13.4106 145.938C13.4106 146.331 13.4953 146.686 13.6646 147.004C13.8364 147.319 14.0682 147.57 14.3599 147.758C14.6541 147.943 14.9849 148.035 15.3521 148.035C15.6385 148.035 15.9041 147.978 16.1489 147.863C16.3937 147.746 16.6034 147.586 16.7778 147.383C16.9549 147.177 17.0851 146.944 17.1685 146.684C17.2518 146.421 17.2726 146.146 17.231 145.859C17.1737 145.443 17.0565 145.085 16.8794 144.785C16.7049 144.483 16.4836 144.251 16.2153 144.09C15.9497 143.926 15.6515 143.844 15.3208 143.844Z" fill="#002C58"/>
<path d="M44.3093 143.5V151.5H43.3406V144.516H43.2937L41.3406 145.812V144.828L43.3406 143.5H44.3093ZM49.1101 151.609C48.6518 151.609 48.239 151.518 47.8718 151.336C47.5046 151.154 47.2104 150.904 46.989 150.586C46.7677 150.268 46.6466 149.906 46.6257 149.5H47.5632C47.5997 149.862 47.7638 150.161 48.0554 150.398C48.3497 150.633 48.7013 150.75 49.1101 150.75C49.4382 150.75 49.7299 150.673 49.9851 150.52C50.2429 150.366 50.4447 150.155 50.5906 149.887C50.739 149.616 50.8132 149.31 50.8132 148.969C50.8132 148.62 50.7364 148.309 50.5828 148.035C50.4317 147.759 50.2234 147.542 49.9578 147.383C49.6921 147.224 49.3888 147.143 49.0476 147.141C48.8028 147.138 48.5515 147.176 48.2937 147.254C48.0359 147.329 47.8236 147.427 47.657 147.547L46.7507 147.437L47.2351 143.5H51.3914V144.359H48.0476L47.7664 146.719H47.8132C47.9773 146.589 48.183 146.48 48.4304 146.395C48.6778 146.309 48.9356 146.266 49.2039 146.266C49.6934 146.266 50.1296 146.383 50.5125 146.617C50.8979 146.849 51.2 147.167 51.4187 147.57C51.6401 147.974 51.7507 148.435 51.7507 148.953C51.7507 149.464 51.6361 149.919 51.407 150.32C51.1804 150.719 50.8679 151.034 50.4695 151.266C50.071 151.495 49.6179 151.609 49.1101 151.609Z" fill="#B0D7FD"/>
<path d="M78.7947 143.5V151.5H77.8259V144.516H77.7791L75.8259 145.812V144.828L77.8259 143.5H78.7947ZM83.7517 151.609C83.4236 151.604 83.0955 151.542 82.7673 151.422C82.4392 151.302 82.1397 151.1 81.8689 150.816C81.5981 150.53 81.3806 150.143 81.2166 149.656C81.0525 149.167 80.9705 148.552 80.9705 147.812C80.9705 147.104 81.0369 146.477 81.1697 145.93C81.3025 145.38 81.4952 144.918 81.7478 144.543C82.0004 144.165 82.3051 143.879 82.6619 143.684C83.0212 143.488 83.4262 143.391 83.8767 143.391C84.3246 143.391 84.7231 143.48 85.072 143.66C85.4236 143.837 85.71 144.085 85.9314 144.402C86.1528 144.72 86.296 145.086 86.3611 145.5H85.408C85.3194 145.141 85.1475 144.842 84.8923 144.605C84.6371 144.368 84.2986 144.25 83.8767 144.25C83.2569 144.25 82.7686 144.52 82.4119 145.059C82.0577 145.598 81.8793 146.354 81.8767 147.328H81.9392C82.085 147.107 82.2582 146.918 82.4587 146.762C82.6619 146.603 82.8858 146.48 83.1306 146.395C83.3754 146.309 83.6345 146.266 83.908 146.266C84.3663 146.266 84.7856 146.38 85.1658 146.609C85.546 146.836 85.8507 147.15 86.0798 147.551C86.309 147.949 86.4236 148.406 86.4236 148.922C86.4236 149.417 86.3129 149.87 86.0916 150.281C85.8702 150.69 85.559 151.016 85.158 151.258C84.7595 151.497 84.2908 151.615 83.7517 151.609ZM83.7517 150.75C84.0798 150.75 84.3741 150.668 84.6345 150.504C84.8975 150.34 85.1046 150.12 85.2556 149.844C85.4093 149.568 85.4861 149.26 85.4861 148.922C85.4861 148.591 85.4119 148.29 85.2634 148.02C85.1176 147.746 84.9158 147.529 84.658 147.367C84.4028 147.206 84.1111 147.125 83.783 147.125C83.5356 147.125 83.3051 147.174 83.0916 147.273C82.878 147.37 82.6905 147.503 82.5291 147.672C82.3702 147.841 82.2452 148.035 82.1541 148.254C82.0629 148.47 82.0173 148.698 82.0173 148.937C82.0173 149.255 82.0916 149.552 82.24 149.828C82.391 150.104 82.5968 150.327 82.8572 150.496C83.1202 150.665 83.4184 150.75 83.7517 150.75Z" fill="#B0D7FD"/>
<path d="M113.656 143.5V151.5H112.688V144.516H112.641L110.688 145.812V144.828L112.688 143.5H113.656ZM116.207 151.5L119.785 144.422V144.359H115.66V143.5H120.785V144.406L117.223 151.5H116.207Z" fill="#B0D7FD"/>
<path d="M147.98 143.5V151.5H147.012V144.516H146.965L145.012 145.812V144.828L147.012 143.5H147.98ZM152.844 151.609C152.307 151.609 151.833 151.514 151.422 151.324C151.013 151.132 150.694 150.867 150.465 150.531C150.236 150.193 150.122 149.807 150.125 149.375C150.122 149.036 150.189 148.724 150.324 148.437C150.46 148.148 150.645 147.908 150.879 147.715C151.116 147.52 151.38 147.396 151.672 147.344V147.297C151.289 147.198 150.984 146.983 150.758 146.652C150.531 146.319 150.419 145.94 150.422 145.516C150.419 145.109 150.522 144.746 150.73 144.426C150.939 144.105 151.225 143.853 151.59 143.668C151.957 143.483 152.375 143.391 152.844 143.391C153.307 143.391 153.721 143.483 154.086 143.668C154.451 143.853 154.737 144.105 154.945 144.426C155.156 144.746 155.263 145.109 155.266 145.516C155.263 145.94 155.147 146.319 154.918 146.652C154.691 146.983 154.391 147.198 154.016 147.297V147.344C154.305 147.396 154.565 147.52 154.797 147.715C155.029 147.908 155.214 148.148 155.352 148.437C155.49 148.724 155.56 149.036 155.563 149.375C155.56 149.807 155.443 150.193 155.211 150.531C154.982 150.867 154.663 151.132 154.254 151.324C153.848 151.514 153.378 151.609 152.844 151.609ZM152.844 150.75C153.206 150.75 153.518 150.691 153.781 150.574C154.044 150.457 154.247 150.292 154.391 150.078C154.534 149.865 154.607 149.615 154.609 149.328C154.607 149.026 154.529 148.759 154.375 148.527C154.221 148.296 154.012 148.113 153.746 147.98C153.483 147.848 153.182 147.781 152.844 147.781C152.503 147.781 152.198 147.848 151.93 147.98C151.664 148.113 151.454 148.296 151.301 148.527C151.15 148.759 151.076 149.026 151.078 149.328C151.076 149.615 151.145 149.865 151.285 150.078C151.428 150.292 151.633 150.457 151.898 150.574C152.164 150.691 152.479 150.75 152.844 150.75ZM152.844 146.953C153.13 146.953 153.384 146.896 153.605 146.781C153.829 146.667 154.005 146.507 154.133 146.301C154.26 146.095 154.326 145.854 154.328 145.578C154.326 145.307 154.262 145.072 154.137 144.871C154.012 144.668 153.839 144.512 153.617 144.402C153.396 144.29 153.138 144.234 152.844 144.234C152.544 144.234 152.283 144.29 152.059 144.402C151.835 144.512 151.661 144.668 151.539 144.871C151.417 145.072 151.357 145.307 151.359 145.578C151.357 145.854 151.418 146.095 151.543 146.301C151.671 146.507 151.846 146.667 152.07 146.781C152.294 146.896 152.552 146.953 152.844 146.953Z" fill="#B0D7FD"/>
<path d="M182.509 143.5V151.5H181.54V144.516H181.493L179.54 145.812V144.828L181.54 143.5H182.509ZM187.357 143.391C187.685 143.393 188.013 143.456 188.341 143.578C188.669 143.701 188.969 143.904 189.24 144.187C189.51 144.469 189.728 144.853 189.892 145.34C190.056 145.827 190.138 146.437 190.138 147.172C190.138 147.883 190.07 148.514 189.935 149.066C189.802 149.616 189.609 150.079 189.357 150.457C189.107 150.835 188.802 151.121 188.443 151.316C188.086 151.512 187.682 151.609 187.232 151.609C186.784 151.609 186.384 151.521 186.032 151.344C185.684 151.164 185.397 150.915 185.173 150.598C184.952 150.277 184.81 149.906 184.747 149.484H185.7C185.786 149.852 185.957 150.155 186.212 150.395C186.47 150.632 186.81 150.75 187.232 150.75C187.849 150.75 188.336 150.48 188.693 149.941C189.052 149.402 189.232 148.641 189.232 147.656H189.169C189.023 147.875 188.85 148.064 188.65 148.223C188.449 148.382 188.226 148.504 187.982 148.59C187.737 148.676 187.476 148.719 187.2 148.719C186.742 148.719 186.322 148.605 185.939 148.379C185.559 148.15 185.254 147.836 185.025 147.437C184.798 147.036 184.685 146.578 184.685 146.062C184.685 145.573 184.794 145.125 185.013 144.719C185.234 144.31 185.544 143.984 185.943 143.742C186.344 143.5 186.815 143.383 187.357 143.391ZM187.357 144.25C187.029 144.25 186.733 144.332 186.47 144.496C186.21 144.658 186.003 144.876 185.849 145.152C185.698 145.426 185.622 145.729 185.622 146.062C185.622 146.396 185.695 146.699 185.841 146.973C185.99 147.243 186.191 147.46 186.447 147.621C186.704 147.78 186.997 147.859 187.325 147.859C187.573 147.859 187.803 147.811 188.017 147.715C188.23 147.616 188.417 147.482 188.575 147.312C188.737 147.141 188.863 146.947 188.954 146.73C189.045 146.512 189.091 146.284 189.091 146.047C189.091 145.734 189.016 145.441 188.865 145.168C188.716 144.895 188.51 144.673 188.247 144.504C187.987 144.335 187.69 144.25 187.357 144.25Z" fill="#B0D7FD"/>
<path d="M213.489 151.5V150.797L216.13 147.906C216.44 147.568 216.695 147.273 216.895 147.023C217.096 146.771 217.244 146.534 217.341 146.312C217.44 146.089 217.489 145.854 217.489 145.609C217.489 145.328 217.421 145.085 217.286 144.879C217.153 144.673 216.971 144.514 216.739 144.402C216.507 144.29 216.247 144.234 215.958 144.234C215.65 144.234 215.382 144.298 215.153 144.426C214.927 144.551 214.751 144.727 214.626 144.953C214.503 145.18 214.442 145.445 214.442 145.75H213.52C213.52 145.281 213.628 144.87 213.844 144.516C214.061 144.161 214.355 143.885 214.727 143.687C215.102 143.49 215.523 143.391 215.989 143.391C216.458 143.391 216.873 143.49 217.235 143.687C217.597 143.885 217.881 144.152 218.087 144.488C218.292 144.824 218.395 145.198 218.395 145.609C218.395 145.904 218.342 146.191 218.235 146.473C218.131 146.751 217.949 147.062 217.688 147.406C217.43 147.747 217.072 148.164 216.614 148.656L214.817 150.578V150.641H218.536V151.5H213.489ZM222.759 151.609C222.17 151.609 221.669 151.449 221.255 151.129C220.841 150.806 220.524 150.339 220.305 149.727C220.087 149.112 219.977 148.37 219.977 147.5C219.977 146.635 220.087 145.897 220.305 145.285C220.527 144.671 220.844 144.202 221.259 143.879C221.675 143.553 222.175 143.391 222.759 143.391C223.342 143.391 223.841 143.553 224.255 143.879C224.671 144.202 224.989 144.671 225.208 145.285C225.429 145.897 225.54 146.635 225.54 147.5C225.54 148.37 225.43 149.112 225.212 149.727C224.993 150.339 224.677 150.806 224.262 151.129C223.848 151.449 223.347 151.609 222.759 151.609ZM222.759 150.75C223.342 150.75 223.795 150.469 224.118 149.906C224.441 149.344 224.602 148.542 224.602 147.5C224.602 146.807 224.528 146.217 224.38 145.73C224.234 145.243 224.023 144.872 223.747 144.617C223.473 144.362 223.144 144.234 222.759 144.234C222.18 144.234 221.729 144.52 221.403 145.09C221.078 145.658 220.915 146.461 220.915 147.5C220.915 148.193 220.988 148.781 221.134 149.266C221.279 149.75 221.489 150.118 221.762 150.371C222.038 150.624 222.371 150.75 222.759 150.75Z" fill="#B0D7FD"/>
<path d="M248.941 151.5V150.797L251.582 147.906C251.892 147.568 252.147 147.273 252.348 147.023C252.548 146.771 252.697 146.534 252.793 146.312C252.892 146.089 252.941 145.854 252.941 145.609C252.941 145.328 252.874 145.085 252.738 144.879C252.605 144.673 252.423 144.514 252.191 144.402C251.96 144.29 251.699 144.234 251.41 144.234C251.103 144.234 250.835 144.298 250.605 144.426C250.379 144.551 250.203 144.727 250.078 144.953C249.956 145.18 249.895 145.445 249.895 145.75H248.973C248.973 145.281 249.081 144.87 249.297 144.516C249.513 144.161 249.807 143.885 250.18 143.687C250.555 143.49 250.975 143.391 251.441 143.391C251.91 143.391 252.326 143.49 252.688 143.687C253.049 143.885 253.333 144.152 253.539 144.488C253.745 144.824 253.848 145.198 253.848 145.609C253.848 145.904 253.794 146.191 253.688 146.473C253.583 146.751 253.401 147.062 253.141 147.406C252.883 147.747 252.525 148.164 252.066 148.656L250.27 150.578V150.641H253.988V151.5H248.941ZM258.414 143.5V151.5H257.445V144.516H257.398L255.445 145.812V144.828L257.445 143.5H258.414Z" fill="#B0D7FD"/>
</g>
<g clip-path="url(#clip5_518_194)">
<rect y="170.667" width="24" height="24" rx="4" fill="#DFE0E1"/>
<path d="M8.71924 187.276C8.24528 187.276 7.8221 187.186 7.44971 187.007C7.07731 186.824 6.78174 186.576 6.56299 186.26C6.34684 185.943 6.23486 185.578 6.22705 185.167H6.72314C6.73096 185.492 6.82341 185.78 7.00049 186.03C7.17757 186.277 7.41455 186.471 7.71143 186.612C8.0109 186.753 8.34424 186.823 8.71143 186.823C9.10986 186.823 9.45882 186.745 9.7583 186.589C10.0604 186.432 10.2961 186.221 10.4653 185.956C10.6346 185.688 10.7192 185.388 10.7192 185.057C10.7192 184.703 10.6268 184.393 10.4419 184.128C10.257 183.859 9.99919 183.651 9.66846 183.503C9.33773 183.352 8.95361 183.276 8.51611 183.276H8.21924V182.823H8.51611C8.88851 182.823 9.22184 182.755 9.51611 182.62C9.81038 182.482 10.0422 182.288 10.2114 182.038C10.3833 181.788 10.4692 181.492 10.4692 181.151C10.4692 180.831 10.395 180.547 10.2466 180.3C10.0981 180.052 9.89242 179.858 9.62939 179.718C9.36898 179.577 9.06299 179.507 8.71143 179.507C8.37288 179.507 8.06559 179.576 7.78955 179.714C7.51611 179.852 7.29867 180.046 7.13721 180.296C6.97575 180.546 6.89372 180.836 6.89111 181.167H6.41064C6.41585 180.753 6.52002 180.387 6.72314 180.069C6.92887 179.751 7.20361 179.504 7.54736 179.327C7.89372 179.147 8.28434 179.057 8.71924 179.057C9.16195 179.057 9.54997 179.15 9.8833 179.335C10.2192 179.52 10.4797 179.77 10.6646 180.085C10.8521 180.4 10.9458 180.75 10.9458 181.135C10.9458 181.599 10.8169 181.996 10.5591 182.327C10.3039 182.655 9.95752 182.883 9.52002 183.01V183.053C10.0382 183.168 10.4484 183.404 10.7505 183.76C11.0526 184.117 11.2036 184.55 11.2036 185.057C11.2036 185.474 11.0968 185.85 10.8833 186.186C10.6698 186.522 10.3755 186.788 10.0005 186.983C9.62809 187.178 9.20101 187.276 8.71924 187.276ZM15.4146 187.276C14.8807 187.276 14.4224 187.112 14.0396 186.784C13.6567 186.456 13.3625 185.986 13.1567 185.374C12.9536 184.759 12.8521 184.024 12.8521 183.167C12.8521 182.313 12.9549 181.578 13.1606 180.964C13.3664 180.349 13.6593 179.878 14.0396 179.55C14.4224 179.221 14.8807 179.057 15.4146 179.057C15.9484 179.057 16.4054 179.221 16.7856 179.55C17.1685 179.878 17.4627 180.349 17.6685 180.964C17.8742 181.578 17.9771 182.313 17.9771 183.167C17.9771 184.024 17.8742 184.759 17.6685 185.374C17.4653 185.986 17.1724 186.456 16.7896 186.784C16.4067 187.112 15.9484 187.276 15.4146 187.276ZM15.4146 186.823C16.063 186.823 16.5721 186.501 16.9419 185.858C17.3117 185.212 17.4966 184.315 17.4966 183.167C17.4966 182.401 17.4119 181.745 17.2427 181.198C17.076 180.651 16.8377 180.233 16.5278 179.944C16.2179 179.652 15.8468 179.507 15.4146 179.507C14.7661 179.507 14.257 179.83 13.8872 180.475C13.5174 181.121 13.3325 182.018 13.3325 183.167C13.3325 183.932 13.4159 184.589 13.5825 185.135C13.7492 185.68 13.9875 186.098 14.2974 186.389C14.6099 186.678 14.9823 186.823 15.4146 186.823Z" fill="#002C58"/>
<path d="M40.7395 187.167V186.464L43.3801 183.573C43.69 183.234 43.9452 182.94 44.1458 182.69C44.3463 182.438 44.4947 182.201 44.5911 181.979C44.69 181.755 44.7395 181.521 44.7395 181.276C44.7395 180.995 44.6718 180.751 44.5364 180.546C44.4036 180.34 44.2213 180.181 43.9895 180.069C43.7577 179.957 43.4973 179.901 43.2083 179.901C42.901 179.901 42.6327 179.965 42.4036 180.093C42.177 180.218 42.0012 180.393 41.8762 180.62C41.7538 180.846 41.6926 181.112 41.6926 181.417H40.7708C40.7708 180.948 40.8788 180.537 41.095 180.182C41.3111 179.828 41.6054 179.552 41.9778 179.354C42.3528 179.156 42.7734 179.057 43.2395 179.057C43.7083 179.057 44.1236 179.156 44.4856 179.354C44.8476 179.552 45.1314 179.819 45.3372 180.155C45.5429 180.491 45.6458 180.865 45.6458 181.276C45.6458 181.57 45.5924 181.858 45.4856 182.139C45.3814 182.418 45.1991 182.729 44.9387 183.073C44.6809 183.414 44.3228 183.831 43.8645 184.323L42.0676 186.245V186.307H45.7864V187.167H40.7395ZM47.3997 187.167V186.464L50.0403 183.573C50.3502 183.234 50.6054 182.94 50.8059 182.69C51.0064 182.438 51.1549 182.201 51.2512 181.979C51.3502 181.755 51.3997 181.521 51.3997 181.276C51.3997 180.995 51.332 180.751 51.1965 180.546C51.0637 180.34 50.8814 180.181 50.6497 180.069C50.4179 179.957 50.1575 179.901 49.8684 179.901C49.5611 179.901 49.2929 179.965 49.0637 180.093C48.8372 180.218 48.6614 180.393 48.5364 180.62C48.414 180.846 48.3528 181.112 48.3528 181.417H47.4309C47.4309 180.948 47.539 180.537 47.7551 180.182C47.9713 179.828 48.2655 179.552 48.6379 179.354C49.0129 179.156 49.4335 179.057 49.8997 179.057C50.3684 179.057 50.7838 179.156 51.1458 179.354C51.5077 179.552 51.7916 179.819 51.9973 180.155C52.203 180.491 52.3059 180.865 52.3059 181.276C52.3059 181.57 52.2525 181.858 52.1458 182.139C52.0416 182.418 51.8593 182.729 51.5989 183.073C51.3411 183.414 50.983 183.831 50.5247 184.323L48.7278 186.245V186.307H52.4465V187.167H47.3997Z" fill="#B0D7FD"/>
<path d="M75.1389 187.167V186.464L77.7795 183.573C78.0894 183.234 78.3446 182.94 78.5452 182.69C78.7457 182.438 78.8941 182.201 78.9905 181.979C79.0894 181.755 79.1389 181.521 79.1389 181.276C79.1389 180.995 79.0712 180.751 78.9358 180.546C78.803 180.34 78.6207 180.181 78.3889 180.069C78.1571 179.957 77.8967 179.901 77.6077 179.901C77.3004 179.901 77.0321 179.965 76.803 180.093C76.5764 180.218 76.4006 180.393 76.2756 180.62C76.1532 180.846 76.092 181.112 76.092 181.417H75.1702C75.1702 180.948 75.2782 180.537 75.4944 180.182C75.7105 179.828 76.0048 179.552 76.3772 179.354C76.7522 179.156 77.1728 179.057 77.6389 179.057C78.1077 179.057 78.523 179.156 78.885 179.354C79.247 179.552 79.5308 179.819 79.7366 180.155C79.9423 180.491 80.0452 180.865 80.0452 181.276C80.0452 181.57 79.9918 181.858 79.885 182.139C79.7808 182.418 79.5986 182.729 79.3381 183.073C79.0803 183.414 78.7222 183.831 78.2639 184.323L76.467 186.245V186.307H80.1858V187.167H75.1389ZM84.5022 187.276C83.9866 187.276 83.5269 187.188 83.1233 187.01C82.7222 186.833 82.4032 186.587 82.1663 186.272C81.9319 185.955 81.8043 185.586 81.7834 185.167H82.7678C82.7887 185.425 82.8772 185.647 83.0334 185.835C83.1897 186.02 83.3941 186.163 83.6467 186.264C83.8993 186.366 84.1793 186.417 84.4866 186.417C84.8303 186.417 85.135 186.357 85.4006 186.237C85.6663 186.117 85.8746 185.951 86.0256 185.737C86.1767 185.524 86.2522 185.276 86.2522 184.995C86.2522 184.701 86.1793 184.441 86.0334 184.218C85.8876 183.991 85.6741 183.814 85.3928 183.686C85.1116 183.559 84.7678 183.495 84.3616 183.495H83.7209V182.635H84.3616C84.6793 182.635 84.9579 182.578 85.1975 182.464C85.4397 182.349 85.6285 182.188 85.7639 181.979C85.9019 181.771 85.9709 181.526 85.9709 181.245C85.9709 180.974 85.9111 180.738 85.7913 180.538C85.6715 180.337 85.5022 180.181 85.2834 180.069C85.0673 179.957 84.8121 179.901 84.5178 179.901C84.2418 179.901 83.9814 179.952 83.7366 180.053C83.4944 180.152 83.2965 180.297 83.1428 180.487C82.9892 180.675 82.9058 180.901 82.8928 181.167H81.9553C81.9709 180.747 82.0972 180.38 82.3342 180.065C82.5712 179.747 82.8811 179.5 83.2639 179.323C83.6493 179.146 84.0725 179.057 84.5334 179.057C85.0282 179.057 85.4527 179.158 85.8069 179.358C86.1611 179.556 86.4332 179.818 86.6233 180.143C86.8134 180.469 86.9084 180.82 86.9084 181.198C86.9084 181.649 86.79 182.033 86.553 182.35C86.3186 182.668 85.9996 182.888 85.5959 183.01V183.073C86.1012 183.156 86.4957 183.371 86.7795 183.718C87.0634 184.061 87.2053 184.487 87.2053 184.995C87.2053 185.43 87.0868 185.82 86.8499 186.167C86.6155 186.51 86.2952 186.781 85.8889 186.979C85.4827 187.177 85.0204 187.276 84.5022 187.276Z" fill="#B0D7FD"/>
<path d="M109.77 187.167V186.464L112.41 183.573C112.72 183.234 112.975 182.94 113.176 182.69C113.376 182.438 113.525 182.201 113.621 181.979C113.72 181.755 113.77 181.521 113.77 181.276C113.77 180.995 113.702 180.751 113.566 180.546C113.434 180.34 113.251 180.181 113.02 180.069C112.788 179.957 112.527 179.901 112.238 179.901C111.931 179.901 111.663 179.965 111.434 180.093C111.207 180.218 111.031 180.393 110.906 180.62C110.784 180.846 110.723 181.112 110.723 181.417H109.801C109.801 180.948 109.909 180.537 110.125 180.182C110.341 179.828 110.635 179.552 111.008 179.354C111.383 179.156 111.803 179.057 112.27 179.057C112.738 179.057 113.154 179.156 113.516 179.354C113.878 179.552 114.161 179.819 114.367 180.155C114.573 180.491 114.676 180.865 114.676 181.276C114.676 181.57 114.622 181.858 114.516 182.139C114.411 182.418 114.229 182.729 113.969 183.073C113.711 183.414 113.353 183.831 112.895 184.323L111.098 186.245V186.307H114.816V187.167H109.77ZM116.07 185.526V184.729L119.586 179.167H120.164V180.401H119.773L117.117 184.604V184.667H121.852V185.526H116.07ZM119.836 187.167V185.284V184.913V179.167H120.758V187.167H119.836Z" fill="#B0D7FD"/>
<path d="M144.438 187.167V186.464L147.078 183.573C147.388 183.234 147.643 182.94 147.844 182.69C148.044 182.438 148.193 182.201 148.289 181.979C148.388 181.755 148.438 181.521 148.438 181.276C148.438 180.995 148.37 180.751 148.234 180.546C148.102 180.34 147.919 180.181 147.688 180.069C147.456 179.957 147.195 179.901 146.906 179.901C146.599 179.901 146.331 179.965 146.102 180.093C145.875 180.218 145.699 180.393 145.574 180.62C145.452 180.846 145.391 181.112 145.391 181.417H144.469C144.469 180.948 144.577 180.537 144.793 180.182C145.009 179.828 145.303 179.552 145.676 179.354C146.051 179.156 146.471 179.057 146.937 179.057C147.406 179.057 147.822 179.156 148.184 179.354C148.546 179.552 148.829 179.819 149.035 180.155C149.241 180.491 149.344 180.865 149.344 181.276C149.344 181.57 149.29 181.858 149.184 182.139C149.079 182.418 148.897 182.729 148.637 183.073C148.379 183.414 148.021 183.831 147.562 184.323L145.766 186.245V186.307H149.484V187.167H144.438ZM153.598 187.276C153.139 187.276 152.727 187.185 152.359 187.003C151.992 186.82 151.698 186.57 151.477 186.253C151.255 185.935 151.134 185.573 151.113 185.167H152.051C152.087 185.529 152.251 185.828 152.543 186.065C152.837 186.3 153.189 186.417 153.598 186.417C153.926 186.417 154.217 186.34 154.473 186.186C154.73 186.033 154.932 185.822 155.078 185.553C155.227 185.283 155.301 184.977 155.301 184.635C155.301 184.287 155.224 183.975 155.07 183.702C154.919 183.426 154.711 183.208 154.445 183.05C154.18 182.891 153.876 182.81 153.535 182.807C153.29 182.805 153.039 182.843 152.781 182.921C152.523 182.996 152.311 183.094 152.145 183.214L151.238 183.104L151.723 179.167H155.879V180.026H152.535L152.254 182.385H152.301C152.465 182.255 152.671 182.147 152.918 182.061C153.165 181.975 153.423 181.932 153.691 181.932C154.181 181.932 154.617 182.05 155 182.284C155.385 182.516 155.688 182.833 155.906 183.237C156.128 183.641 156.238 184.102 156.238 184.62C156.238 185.13 156.124 185.586 155.895 185.987C155.668 186.385 155.355 186.701 154.957 186.932C154.559 187.162 154.105 187.276 153.598 187.276Z" fill="#B0D7FD"/>
<path d="M178.923 187.167V186.464L181.564 183.573C181.874 183.234 182.129 182.94 182.329 182.69C182.53 182.438 182.678 182.201 182.775 181.979C182.874 181.755 182.923 181.521 182.923 181.276C182.923 180.995 182.855 180.751 182.72 180.546C182.587 180.34 182.405 180.181 182.173 180.069C181.941 179.957 181.681 179.901 181.392 179.901C181.085 179.901 180.816 179.965 180.587 180.093C180.361 180.218 180.185 180.393 180.06 180.62C179.937 180.846 179.876 181.112 179.876 181.417H178.954C178.954 180.948 179.062 180.537 179.279 180.182C179.495 179.828 179.789 179.552 180.161 179.354C180.536 179.156 180.957 179.057 181.423 179.057C181.892 179.057 182.307 179.156 182.669 179.354C183.031 179.552 183.315 179.819 183.521 180.155C183.726 180.491 183.829 180.865 183.829 181.276C183.829 181.57 183.776 181.858 183.669 182.139C183.565 182.418 183.383 182.729 183.122 183.073C182.865 183.414 182.506 183.831 182.048 184.323L180.251 186.245V186.307H183.97V187.167H178.923ZM188.24 187.276C187.911 187.271 187.583 187.208 187.255 187.089C186.927 186.969 186.628 186.767 186.357 186.483C186.086 186.197 185.868 185.81 185.704 185.323C185.54 184.833 185.458 184.219 185.458 183.479C185.458 182.771 185.525 182.143 185.657 181.596C185.79 181.047 185.983 180.585 186.236 180.21C186.488 179.832 186.793 179.546 187.15 179.35C187.509 179.155 187.914 179.057 188.365 179.057C188.812 179.057 189.211 179.147 189.56 179.327C189.911 179.504 190.198 179.751 190.419 180.069C190.641 180.387 190.784 180.753 190.849 181.167H189.896C189.807 180.807 189.635 180.509 189.38 180.272C189.125 180.035 188.786 179.917 188.365 179.917C187.745 179.917 187.256 180.186 186.9 180.725C186.545 181.264 186.367 182.021 186.365 182.995H186.427C186.573 182.774 186.746 182.585 186.947 182.428C187.15 182.27 187.374 182.147 187.618 182.061C187.863 181.975 188.122 181.932 188.396 181.932C188.854 181.932 189.273 182.047 189.654 182.276C190.034 182.503 190.338 182.816 190.568 183.218C190.797 183.616 190.911 184.073 190.911 184.589C190.911 185.083 190.801 185.537 190.579 185.948C190.358 186.357 190.047 186.682 189.646 186.925C189.247 187.164 188.779 187.281 188.24 187.276ZM188.24 186.417C188.568 186.417 188.862 186.335 189.122 186.171C189.385 186.007 189.592 185.787 189.743 185.51C189.897 185.234 189.974 184.927 189.974 184.589C189.974 184.258 189.9 183.957 189.751 183.686C189.605 183.413 189.404 183.195 189.146 183.034C188.891 182.872 188.599 182.792 188.271 182.792C188.023 182.792 187.793 182.841 187.579 182.94C187.366 183.037 187.178 183.169 187.017 183.339C186.858 183.508 186.733 183.702 186.642 183.921C186.551 184.137 186.505 184.365 186.505 184.604C186.505 184.922 186.579 185.219 186.728 185.495C186.879 185.771 187.085 185.994 187.345 186.163C187.608 186.332 187.906 186.417 188.24 186.417Z" fill="#B0D7FD"/>
<path d="M213.784 187.167V186.464L216.425 183.573C216.735 183.234 216.99 182.94 217.191 182.69C217.391 182.438 217.54 182.201 217.636 181.979C217.735 181.755 217.784 181.521 217.784 181.276C217.784 180.995 217.717 180.751 217.581 180.546C217.448 180.34 217.266 180.181 217.034 180.069C216.803 179.957 216.542 179.901 216.253 179.901C215.946 179.901 215.678 179.965 215.448 180.093C215.222 180.218 215.046 180.393 214.921 180.62C214.799 180.846 214.738 181.112 214.738 181.417H213.816C213.816 180.948 213.924 180.537 214.14 180.182C214.356 179.828 214.65 179.552 215.023 179.354C215.398 179.156 215.818 179.057 216.284 179.057C216.753 179.057 217.169 179.156 217.531 179.354C217.892 179.552 218.176 179.819 218.382 180.155C218.588 180.491 218.691 180.865 218.691 181.276C218.691 181.57 218.637 181.858 218.531 182.139C218.426 182.418 218.244 182.729 217.984 183.073C217.726 183.414 217.368 183.831 216.909 184.323L215.113 186.245V186.307H218.831V187.167H213.784ZM220.695 187.167L224.273 180.089V180.026H220.148V179.167H225.273V180.073L221.71 187.167H220.695Z" fill="#B0D7FD"/>
<path d="M248.109 187.167V186.464L250.75 183.573C251.059 183.234 251.315 182.94 251.515 182.69C251.716 182.438 251.864 182.201 251.96 181.979C252.059 181.755 252.109 181.521 252.109 181.276C252.109 180.995 252.041 180.751 251.906 180.546C251.773 180.34 251.591 180.181 251.359 180.069C251.127 179.957 250.867 179.901 250.578 179.901C250.27 179.901 250.002 179.965 249.773 180.093C249.546 180.218 249.371 180.393 249.246 180.62C249.123 180.846 249.062 181.112 249.062 181.417H248.14C248.14 180.948 248.248 180.537 248.464 180.182C248.681 179.828 248.975 179.552 249.347 179.354C249.722 179.156 250.143 179.057 250.609 179.057C251.078 179.057 251.493 179.156 251.855 179.354C252.217 179.552 252.501 179.819 252.707 180.155C252.912 180.491 253.015 180.865 253.015 181.276C253.015 181.57 252.962 181.858 252.855 182.139C252.751 182.418 252.569 182.729 252.308 183.073C252.05 183.414 251.692 183.831 251.234 184.323L249.437 186.245V186.307H253.156V187.167H248.109ZM257.332 187.276C256.795 187.276 256.321 187.181 255.91 186.991C255.501 186.798 255.182 186.534 254.953 186.198C254.723 185.859 254.61 185.474 254.613 185.042C254.61 184.703 254.677 184.391 254.812 184.104C254.947 183.815 255.132 183.574 255.367 183.382C255.604 183.186 255.868 183.063 256.16 183.01V182.964C255.777 182.865 255.472 182.65 255.246 182.319C255.019 181.986 254.907 181.607 254.91 181.182C254.907 180.776 255.01 180.413 255.218 180.093C255.427 179.772 255.713 179.52 256.078 179.335C256.445 179.15 256.863 179.057 257.332 179.057C257.795 179.057 258.209 179.15 258.574 179.335C258.938 179.52 259.225 179.772 259.433 180.093C259.644 180.413 259.751 180.776 259.753 181.182C259.751 181.607 259.635 181.986 259.406 182.319C259.179 182.65 258.878 182.865 258.503 182.964V183.01C258.792 183.063 259.053 183.186 259.285 183.382C259.516 183.574 259.701 183.815 259.839 184.104C259.977 184.391 260.048 184.703 260.05 185.042C260.048 185.474 259.931 185.859 259.699 186.198C259.47 186.534 259.151 186.798 258.742 186.991C258.335 187.181 257.865 187.276 257.332 187.276ZM257.332 186.417C257.694 186.417 258.006 186.358 258.269 186.241C258.532 186.124 258.735 185.958 258.878 185.745C259.022 185.531 259.095 185.281 259.097 184.995C259.095 184.693 259.016 184.426 258.863 184.194C258.709 183.962 258.5 183.78 258.234 183.647C257.971 183.514 257.67 183.448 257.332 183.448C256.99 183.448 256.686 183.514 256.417 183.647C256.152 183.78 255.942 183.962 255.789 184.194C255.638 184.426 255.563 184.693 255.566 184.995C255.563 185.281 255.632 185.531 255.773 185.745C255.916 185.958 256.121 186.124 256.386 186.241C256.652 186.358 256.967 186.417 257.332 186.417ZM257.332 182.62C257.618 182.62 257.872 182.563 258.093 182.448C258.317 182.333 258.493 182.173 258.621 181.968C258.748 181.762 258.813 181.521 258.816 181.245C258.813 180.974 258.75 180.738 258.625 180.538C258.5 180.335 258.326 180.178 258.105 180.069C257.884 179.957 257.626 179.901 257.332 179.901C257.032 179.901 256.77 179.957 256.546 180.069C256.322 180.178 256.149 180.335 256.027 180.538C255.904 180.738 255.845 180.974 255.847 181.245C255.845 181.521 255.906 181.762 256.031 181.968C256.158 182.173 256.334 182.333 256.558 182.448C256.782 182.563 257.04 182.62 257.332 182.62Z" fill="#B0D7FD"/>
</g>
<g clip-path="url(#clip6_518_194)">
<rect y="206.333" width="24" height="24" rx="4" fill="#DFE0E1"/>
<path d="M9.68604 222.943C9.21208 222.943 8.7889 222.853 8.4165 222.673C8.04411 222.491 7.74854 222.242 7.52979 221.927C7.31364 221.609 7.20166 221.245 7.19385 220.833H7.68994C7.69775 221.159 7.7902 221.447 7.96729 221.697C8.14437 221.944 8.38135 222.138 8.67822 222.279C8.9777 222.419 9.31104 222.49 9.67822 222.49C10.0767 222.49 10.4256 222.411 10.7251 222.255C11.0272 222.099 11.2629 221.888 11.4321 221.622C11.6014 221.354 11.686 221.055 11.686 220.724C11.686 220.37 11.5936 220.06 11.4087 219.794C11.2238 219.526 10.966 219.318 10.6353 219.169C10.3045 219.018 9.92041 218.943 9.48291 218.943H9.18604V218.49H9.48291C9.85531 218.49 10.1886 218.422 10.4829 218.286C10.7772 218.148 11.009 217.954 11.1782 217.704C11.3501 217.454 11.436 217.159 11.436 216.818C11.436 216.497 11.3618 216.213 11.2134 215.966C11.0649 215.719 10.8592 215.525 10.5962 215.384C10.3358 215.243 10.0298 215.173 9.67822 215.173C9.33968 215.173 9.03239 215.242 8.75635 215.38C8.48291 215.518 8.26546 215.712 8.104 215.962C7.94255 216.212 7.86051 216.503 7.85791 216.833H7.37744C7.38265 216.419 7.48682 216.053 7.68994 215.736C7.89567 215.418 8.17041 215.17 8.51416 214.993C8.86051 214.814 9.25114 214.724 9.68604 214.724C10.1287 214.724 10.5168 214.816 10.8501 215.001C11.186 215.186 11.4465 215.436 11.6313 215.751C11.8188 216.066 11.9126 216.417 11.9126 216.802C11.9126 217.266 11.7837 217.663 11.5259 217.993C11.2707 218.322 10.9243 218.549 10.4868 218.677V218.72C11.005 218.835 11.4152 219.07 11.7173 219.427C12.0194 219.784 12.1704 220.216 12.1704 220.724C12.1704 221.141 12.0636 221.517 11.8501 221.853C11.6366 222.189 11.3423 222.454 10.9673 222.65C10.5949 222.845 10.1678 222.943 9.68604 222.943ZM16.147 214.833V222.833H15.6587V215.349H15.6118L13.8149 216.54V216.017L15.5962 214.833H16.147Z" fill="#002C58"/>
<path d="M40.6375 222.833V222.13L43.2781 219.24C43.588 218.901 43.8432 218.607 44.0437 218.357C44.2442 218.104 44.3927 217.867 44.489 217.646C44.588 217.422 44.6375 217.187 44.6375 216.943C44.6375 216.661 44.5697 216.418 44.4343 216.212C44.3015 216.006 44.1192 215.848 43.8875 215.736C43.6557 215.624 43.3953 215.568 43.1062 215.568C42.7989 215.568 42.5307 215.631 42.3015 215.759C42.075 215.884 41.8992 216.06 41.7742 216.286C41.6518 216.513 41.5906 216.779 41.5906 217.083H40.6687C40.6687 216.615 40.7768 216.203 40.9929 215.849C41.2091 215.495 41.5033 215.219 41.8757 215.021C42.2507 214.823 42.6713 214.724 43.1375 214.724C43.6062 214.724 44.0216 214.823 44.3835 215.021C44.7455 215.219 45.0294 215.486 45.2351 215.822C45.4408 216.157 45.5437 216.531 45.5437 216.943C45.5437 217.237 45.4903 217.525 45.3835 217.806C45.2794 218.085 45.0971 218.396 44.8367 218.74C44.5789 219.081 44.2208 219.497 43.7625 219.99L41.9656 221.911V221.974H45.6843V222.833H40.6375ZM49.8445 214.724C50.1726 214.726 50.5007 214.789 50.8289 214.911C51.157 215.034 51.4565 215.237 51.7273 215.521C51.9981 215.802 52.2156 216.186 52.3796 216.673C52.5437 217.16 52.6257 217.771 52.6257 218.505C52.6257 219.216 52.558 219.848 52.4226 220.4C52.2898 220.949 52.0971 221.413 51.8445 221.79C51.5945 222.168 51.2898 222.454 50.9304 222.65C50.5736 222.845 50.17 222.943 49.7195 222.943C49.2716 222.943 48.8718 222.854 48.5203 222.677C48.1713 222.497 47.8848 222.249 47.6609 221.931C47.4395 221.611 47.2976 221.24 47.2351 220.818H48.1882C48.2742 221.185 48.4447 221.488 48.7 221.728C48.9578 221.965 49.2976 222.083 49.7195 222.083C50.3367 222.083 50.8236 221.814 51.1804 221.275C51.5398 220.736 51.7195 219.974 51.7195 218.99H51.657C51.5111 219.208 51.338 219.397 51.1375 219.556C50.9369 219.715 50.7143 219.837 50.4695 219.923C50.2247 220.009 49.9643 220.052 49.6882 220.052C49.2299 220.052 48.8093 219.939 48.4265 219.712C48.0463 219.483 47.7416 219.169 47.5125 218.771C47.2859 218.37 47.1726 217.911 47.1726 217.396C47.1726 216.906 47.282 216.458 47.5007 216.052C47.7221 215.643 48.032 215.318 48.4304 215.075C48.8315 214.833 49.3028 214.716 49.8445 214.724ZM49.8445 215.583C49.5164 215.583 49.2208 215.665 48.9578 215.829C48.6973 215.991 48.4903 216.21 48.3367 216.486C48.1856 216.759 48.1101 217.062 48.1101 217.396C48.1101 217.729 48.183 218.032 48.3289 218.306C48.4773 218.577 48.6791 218.793 48.9343 218.954C49.1921 219.113 49.4851 219.193 49.8132 219.193C50.0606 219.193 50.2911 219.144 50.5046 219.048C50.7182 218.949 50.9044 218.815 51.0632 218.646C51.2247 218.474 51.351 218.28 51.4421 218.064C51.5333 217.845 51.5789 217.617 51.5789 217.38C51.5789 217.068 51.5033 216.775 51.3523 216.501C51.2039 216.228 50.9981 216.006 50.7351 215.837C50.4747 215.668 50.1778 215.583 49.8445 215.583Z" fill="#B0D7FD"/>
<path d="M77.7346 222.943C77.219 222.943 76.7594 222.854 76.3557 222.677C75.9547 222.5 75.6357 222.254 75.3987 221.939C75.1643 221.621 75.0367 221.253 75.0159 220.833H76.0002C76.0211 221.091 76.1096 221.314 76.2659 221.501C76.4221 221.686 76.6265 221.829 76.8792 221.931C77.1318 222.032 77.4117 222.083 77.719 222.083C78.0627 222.083 78.3674 222.023 78.6331 221.904C78.8987 221.784 79.107 221.617 79.2581 221.404C79.4091 221.19 79.4846 220.943 79.4846 220.661C79.4846 220.367 79.4117 220.108 79.2659 219.884C79.12 219.657 78.9065 219.48 78.6252 219.353C78.344 219.225 78.0002 219.161 77.594 219.161H76.9534V218.302H77.594C77.9117 218.302 78.1903 218.245 78.4299 218.13C78.6721 218.016 78.8609 217.854 78.9963 217.646C79.1344 217.437 79.2034 217.193 79.2034 216.911C79.2034 216.641 79.1435 216.405 79.0237 216.204C78.9039 216.004 78.7346 215.848 78.5159 215.736C78.2997 215.624 78.0445 215.568 77.7502 215.568C77.4742 215.568 77.2138 215.618 76.969 215.72C76.7268 215.819 76.5289 215.963 76.3752 216.154C76.2216 216.341 76.1383 216.568 76.1252 216.833H75.1877C75.2034 216.414 75.3297 216.047 75.5667 215.732C75.8036 215.414 76.1135 215.167 76.4963 214.99C76.8818 214.812 77.3049 214.724 77.7659 214.724C78.2607 214.724 78.6851 214.824 79.0393 215.025C79.3935 215.223 79.6656 215.484 79.8557 215.81C80.0458 216.135 80.1409 216.487 80.1409 216.865C80.1409 217.315 80.0224 217.699 79.7854 218.017C79.551 218.335 79.232 218.555 78.8284 218.677V218.74C79.3336 218.823 79.7281 219.038 80.012 219.384C80.2958 219.728 80.4377 220.154 80.4377 220.661C80.4377 221.096 80.3193 221.487 80.0823 221.833C79.8479 222.177 79.5276 222.448 79.1213 222.646C78.7151 222.844 78.2528 222.943 77.7346 222.943ZM84.6448 222.943C84.0562 222.943 83.5549 222.782 83.1409 222.462C82.7268 222.139 82.4104 221.672 82.1917 221.06C81.9729 220.445 81.8635 219.703 81.8635 218.833C81.8635 217.969 81.9729 217.23 82.1917 216.618C82.413 216.004 82.7307 215.535 83.1448 215.212C83.5614 214.887 84.0614 214.724 84.6448 214.724C85.2281 214.724 85.7268 214.887 86.1409 215.212C86.5575 215.535 86.8752 216.004 87.094 216.618C87.3153 217.23 87.426 217.969 87.426 218.833C87.426 219.703 87.3167 220.445 87.0979 221.06C86.8792 221.672 86.5627 222.139 86.1487 222.462C85.7346 222.782 85.2333 222.943 84.6448 222.943ZM84.6448 222.083C85.2281 222.083 85.6812 221.802 86.0042 221.24C86.3271 220.677 86.4885 219.875 86.4885 218.833C86.4885 218.141 86.4143 217.551 86.2659 217.064C86.12 216.577 85.9091 216.206 85.6331 215.95C85.3596 215.695 85.0302 215.568 84.6448 215.568C84.0667 215.568 83.6148 215.853 83.2893 216.423C82.9638 216.991 82.801 217.794 82.801 218.833C82.801 219.526 82.8739 220.115 83.0198 220.599C83.1656 221.083 83.3752 221.452 83.6487 221.704C83.9247 221.957 84.2568 222.083 84.6448 222.083Z" fill="#B0D7FD"/>
<path d="M113.187 222.943C112.671 222.943 112.212 222.854 111.808 222.677C111.407 222.5 111.088 222.254 110.851 221.939C110.617 221.621 110.489 221.253 110.468 220.833H111.453C111.473 221.091 111.562 221.314 111.718 221.501C111.875 221.686 112.079 221.829 112.332 221.931C112.584 222.032 112.864 222.083 113.171 222.083C113.515 222.083 113.82 222.023 114.085 221.904C114.351 221.784 114.559 221.617 114.71 221.404C114.861 221.19 114.937 220.943 114.937 220.661C114.937 220.367 114.864 220.108 114.718 219.884C114.572 219.657 114.359 219.48 114.078 219.353C113.796 219.225 113.453 219.161 113.046 219.161H112.406V218.302H113.046C113.364 218.302 113.643 218.245 113.882 218.13C114.125 218.016 114.313 217.854 114.449 217.646C114.587 217.437 114.656 217.193 114.656 216.911C114.656 216.641 114.596 216.405 114.476 216.204C114.356 216.004 114.187 215.848 113.968 215.736C113.752 215.624 113.497 215.568 113.203 215.568C112.927 215.568 112.666 215.618 112.421 215.72C112.179 215.819 111.981 215.963 111.828 216.154C111.674 216.341 111.591 216.568 111.578 216.833H110.64C110.656 216.414 110.782 216.047 111.019 215.732C111.256 215.414 111.566 215.167 111.949 214.99C112.334 214.812 112.757 214.724 113.218 214.724C113.713 214.724 114.138 214.824 114.492 215.025C114.846 215.223 115.118 215.484 115.308 215.81C115.498 216.135 115.593 216.487 115.593 216.865C115.593 217.315 115.475 217.699 115.238 218.017C115.003 218.335 114.684 218.555 114.281 218.677V218.74C114.786 218.823 115.181 219.038 115.464 219.384C115.748 219.728 115.89 220.154 115.89 220.661C115.89 221.096 115.772 221.487 115.535 221.833C115.3 222.177 114.98 222.448 114.574 222.646C114.167 222.844 113.705 222.943 113.187 222.943ZM120.3 214.833V222.833H119.332V215.849H119.285L117.332 217.146V216.161L119.332 214.833H120.3Z" fill="#B0D7FD"/>
<path d="M151.37 214.833V222.833H150.401V215.849H150.354L148.401 217.146V216.161L150.401 214.833H151.37Z" fill="#B0D7FD"/>
<path d="M182.355 222.833V222.13L184.996 219.24C185.306 218.901 185.561 218.607 185.761 218.357C185.962 218.104 186.11 217.867 186.207 217.646C186.306 217.422 186.355 217.187 186.355 216.943C186.355 216.661 186.288 216.418 186.152 216.212C186.019 216.006 185.837 215.848 185.605 215.736C185.373 215.624 185.113 215.568 184.824 215.568C184.517 215.568 184.248 215.631 184.019 215.759C183.793 215.884 183.617 216.06 183.492 216.286C183.37 216.513 183.308 216.779 183.308 217.083H182.386C182.386 216.615 182.495 216.203 182.711 215.849C182.927 215.495 183.221 215.219 183.594 215.021C183.969 214.823 184.389 214.724 184.855 214.724C185.324 214.724 185.739 214.823 186.101 215.021C186.463 215.219 186.747 215.486 186.953 215.822C187.159 216.157 187.261 216.531 187.261 216.943C187.261 217.237 187.208 217.525 187.101 217.806C186.997 218.085 186.815 218.396 186.554 218.74C186.297 219.081 185.939 219.497 185.48 219.99L183.683 221.911V221.974H187.402V222.833H182.355Z" fill="#B0D7FD"/>
<path d="M219.458 222.943C218.942 222.943 218.483 222.854 218.079 222.677C217.678 222.5 217.359 222.254 217.122 221.939C216.887 221.621 216.76 221.253 216.739 220.833H217.723C217.744 221.091 217.833 221.314 217.989 221.501C218.145 221.686 218.35 221.829 218.602 221.931C218.855 222.032 219.135 222.083 219.442 222.083C219.786 222.083 220.091 222.023 220.356 221.904C220.622 221.784 220.83 221.617 220.981 221.404C221.132 221.19 221.208 220.943 221.208 220.661C221.208 220.367 221.135 220.108 220.989 219.884C220.843 219.657 220.63 219.48 220.348 219.353C220.067 219.225 219.723 219.161 219.317 219.161H218.677V218.302H219.317C219.635 218.302 219.913 218.245 220.153 218.13C220.395 218.016 220.584 217.854 220.719 217.646C220.858 217.437 220.927 217.193 220.927 216.911C220.927 216.641 220.867 216.405 220.747 216.204C220.627 216.004 220.458 215.848 220.239 215.736C220.023 215.624 219.768 215.568 219.473 215.568C219.197 215.568 218.937 215.618 218.692 215.72C218.45 215.819 218.252 215.963 218.098 216.154C217.945 216.341 217.861 216.568 217.848 216.833H216.911C216.927 216.414 217.053 216.047 217.29 215.732C217.527 215.414 217.837 215.167 218.219 214.99C218.605 214.812 219.028 214.724 219.489 214.724C219.984 214.724 220.408 214.824 220.762 215.025C221.117 215.223 221.389 215.484 221.579 215.81C221.769 216.135 221.864 216.487 221.864 216.865C221.864 217.315 221.746 217.699 221.509 218.017C221.274 218.335 220.955 218.555 220.552 218.677V218.74C221.057 218.823 221.451 219.038 221.735 219.384C222.019 219.728 222.161 220.154 222.161 220.661C222.161 221.096 222.042 221.487 221.805 221.833C221.571 222.177 221.251 222.448 220.844 222.646C220.438 222.844 219.976 222.943 219.458 222.943Z" fill="#B0D7FD"/>
<path d="M251.112 221.193V220.396L254.627 214.833H255.206V216.068H254.815L252.159 220.271V220.333H256.893V221.193H251.112ZM254.877 222.833V220.95V220.579V214.833H255.799V222.833H254.877Z" fill="#B0D7FD"/>
</g>
<g clip-path="url(#clip7_518_194)">
<rect y="242" width="24" height="24" rx="4" fill="#DFE0E1"/>
<path d="M8.64941 258.609C8.17546 258.609 7.75228 258.52 7.37988 258.34C7.00749 258.158 6.71191 257.909 6.49316 257.594C6.27702 257.276 6.16504 256.911 6.15723 256.5H6.65332C6.66113 256.826 6.75358 257.113 6.93066 257.363C7.10775 257.611 7.34473 257.805 7.6416 257.945C7.94108 258.086 8.27441 258.156 8.6416 258.156C9.04004 258.156 9.389 258.078 9.68848 257.922C9.99056 257.766 10.2262 257.555 10.3955 257.289C10.5648 257.021 10.6494 256.721 10.6494 256.391C10.6494 256.036 10.557 255.727 10.3721 255.461C10.1872 255.193 9.92936 254.984 9.59863 254.836C9.2679 254.685 8.88379 254.609 8.44629 254.609H8.14941V254.156H8.44629C8.81868 254.156 9.15202 254.089 9.44629 253.953C9.74056 253.815 9.97233 253.621 10.1416 253.371C10.3135 253.121 10.3994 252.826 10.3994 252.484C10.3994 252.164 10.3252 251.88 10.1768 251.633C10.0283 251.385 9.82259 251.191 9.55957 251.051C9.29915 250.91 8.99316 250.84 8.6416 250.84C8.30306 250.84 7.99577 250.909 7.71973 251.047C7.44629 251.185 7.22884 251.379 7.06738 251.629C6.90592 251.879 6.82389 252.169 6.82129 252.5H6.34082C6.34603 252.086 6.4502 251.72 6.65332 251.402C6.85905 251.085 7.13379 250.837 7.47754 250.66C7.82389 250.48 8.21452 250.391 8.64941 250.391C9.09212 250.391 9.48014 250.483 9.81348 250.668C10.1494 250.853 10.4098 251.103 10.5947 251.418C10.7822 251.733 10.876 252.083 10.876 252.469C10.876 252.932 10.7471 253.329 10.4893 253.66C10.234 253.988 9.8877 254.216 9.4502 254.344V254.387C9.96842 254.501 10.3786 254.737 10.6807 255.094C10.9827 255.451 11.1338 255.883 11.1338 256.391C11.1338 256.807 11.027 257.184 10.8135 257.52C10.5999 257.855 10.3057 258.121 9.93066 258.316C9.55827 258.512 9.13118 258.609 8.64941 258.609ZM12.9854 258.5V258.129L15.5752 255.145C15.945 254.717 16.238 254.355 16.4541 254.059C16.6702 253.762 16.8252 253.493 16.9189 253.254C17.0127 253.014 17.0596 252.764 17.0596 252.504C17.0596 252.178 16.9827 251.891 16.8291 251.641C16.6781 251.388 16.471 251.191 16.208 251.051C15.9476 250.91 15.6507 250.84 15.3174 250.84C14.9684 250.84 14.6624 250.917 14.3994 251.07C14.1364 251.224 13.9307 251.432 13.7822 251.695C13.6364 251.958 13.5635 252.254 13.5635 252.582H13.0908C13.0908 252.168 13.1872 251.796 13.3799 251.465C13.5726 251.134 13.8369 250.872 14.1729 250.68C14.5114 250.487 14.8968 250.391 15.3291 250.391C15.7536 250.391 16.1312 250.483 16.4619 250.668C16.7926 250.853 17.0531 251.105 17.2432 251.426C17.4333 251.743 17.5283 252.103 17.5283 252.504C17.5283 252.798 17.4775 253.082 17.376 253.355C17.277 253.626 17.1064 253.93 16.8643 254.266C16.6221 254.599 16.2874 255.01 15.8604 255.5L13.6885 258.004V258.047H17.8877V258.5H12.9854Z" fill="#002C58"/>
<path d="M46.5535 258.609C46.0951 258.609 45.6824 258.518 45.3152 258.336C44.948 258.154 44.6537 257.904 44.4324 257.586C44.211 257.268 44.0899 256.906 44.0691 256.5H45.0066C45.0431 256.862 45.2071 257.161 45.4988 257.398C45.7931 257.633 46.1446 257.75 46.5535 257.75C46.8816 257.75 47.1733 257.673 47.4285 257.52C47.6863 257.366 47.8881 257.155 48.0339 256.887C48.1824 256.616 48.2566 256.31 48.2566 255.969C48.2566 255.62 48.1798 255.309 48.0261 255.035C47.8751 254.759 47.6667 254.542 47.4011 254.383C47.1355 254.224 46.8321 254.143 46.491 254.141C46.2462 254.138 45.9949 254.176 45.7371 254.254C45.4792 254.329 45.267 254.427 45.1003 254.547L44.1941 254.437L44.6785 250.5H48.8347V251.359H45.491L45.2097 253.719H45.2566C45.4207 253.589 45.6264 253.48 45.8738 253.395C46.1212 253.309 46.379 253.266 46.6472 253.266C47.1368 253.266 47.573 253.383 47.9558 253.617C48.3412 253.849 48.6433 254.167 48.8621 254.57C49.0834 254.974 49.1941 255.435 49.1941 255.953C49.1941 256.464 49.0795 256.919 48.8503 257.32C48.6238 257.719 48.3113 258.034 47.9128 258.266C47.5144 258.495 47.0613 258.609 46.5535 258.609Z" fill="#B0D7FD"/>
<path d="M81.1951 258.609C80.8669 258.604 80.5388 258.542 80.2107 258.422C79.8826 258.302 79.5831 258.1 79.3123 257.816C79.0414 257.53 78.824 257.143 78.6599 256.656C78.4958 256.167 78.4138 255.552 78.4138 254.812C78.4138 254.104 78.4802 253.477 78.613 252.93C78.7458 252.38 78.9386 251.918 79.1912 251.543C79.4438 251.165 79.7485 250.879 80.1052 250.684C80.4646 250.488 80.8695 250.391 81.3201 250.391C81.768 250.391 82.1664 250.48 82.5154 250.66C82.8669 250.837 83.1534 251.085 83.3748 251.402C83.5961 251.72 83.7393 252.086 83.8044 252.5H82.8513C82.7628 252.141 82.5909 251.842 82.3357 251.605C82.0805 251.368 81.7419 251.25 81.3201 251.25C80.7003 251.25 80.212 251.52 79.8552 252.059C79.5011 252.598 79.3227 253.354 79.3201 254.328H79.3826C79.5284 254.107 79.7016 253.918 79.9021 253.762C80.1052 253.603 80.3292 253.48 80.574 253.395C80.8188 253.309 81.0779 253.266 81.3513 253.266C81.8097 253.266 82.2289 253.38 82.6091 253.609C82.9893 253.836 83.294 254.15 83.5232 254.551C83.7524 254.949 83.8669 255.406 83.8669 255.922C83.8669 256.417 83.7563 256.87 83.5349 257.281C83.3136 257.69 83.0024 258.016 82.6013 258.258C82.2029 258.497 81.7341 258.615 81.1951 258.609ZM81.1951 257.75C81.5232 257.75 81.8175 257.668 82.0779 257.504C82.3409 257.34 82.5479 257.12 82.699 256.844C82.8526 256.568 82.9294 256.26 82.9294 255.922C82.9294 255.591 82.8552 255.29 82.7068 255.02C82.561 254.746 82.3591 254.529 82.1013 254.367C81.8461 254.206 81.5544 254.125 81.2263 254.125C80.9789 254.125 80.7485 254.174 80.5349 254.273C80.3214 254.37 80.1339 254.503 79.9724 254.672C79.8136 254.841 79.6886 255.035 79.5974 255.254C79.5063 255.47 79.4607 255.698 79.4607 255.937C79.4607 256.255 79.5349 256.552 79.6833 256.828C79.8344 257.104 80.0401 257.327 80.3005 257.496C80.5636 257.665 80.8617 257.75 81.1951 257.75Z" fill="#B0D7FD"/>
<path d="M113.65 258.5L117.229 251.422V251.359H113.104V250.5H118.229V251.406L114.666 258.5H113.65Z" fill="#B0D7FD"/>
<path d="M150.287 258.609C149.751 258.609 149.277 258.514 148.865 258.324C148.456 258.132 148.137 257.867 147.908 257.531C147.679 257.193 147.566 256.807 147.568 256.375C147.566 256.036 147.632 255.724 147.768 255.437C147.903 255.148 148.088 254.908 148.322 254.715C148.559 254.52 148.824 254.396 149.115 254.344V254.297C148.732 254.198 148.428 253.983 148.201 253.652C147.975 253.319 147.863 252.94 147.865 252.516C147.863 252.109 147.965 251.746 148.174 251.426C148.382 251.105 148.669 250.853 149.033 250.668C149.4 250.483 149.818 250.391 150.287 250.391C150.751 250.391 151.165 250.483 151.529 250.668C151.894 250.853 152.18 251.105 152.389 251.426C152.6 251.746 152.706 252.109 152.709 252.516C152.706 252.94 152.59 253.319 152.361 253.652C152.135 253.983 151.834 254.198 151.459 254.297V254.344C151.748 254.396 152.008 254.52 152.24 254.715C152.472 254.908 152.657 255.148 152.795 255.437C152.933 255.724 153.003 256.036 153.006 256.375C153.003 256.807 152.886 257.193 152.654 257.531C152.425 257.867 152.106 258.132 151.697 258.324C151.291 258.514 150.821 258.609 150.287 258.609ZM150.287 257.75C150.649 257.75 150.962 257.691 151.225 257.574C151.488 257.457 151.691 257.292 151.834 257.078C151.977 256.865 152.05 256.615 152.053 256.328C152.05 256.026 151.972 255.759 151.818 255.527C151.665 255.296 151.455 255.113 151.189 254.98C150.926 254.848 150.626 254.781 150.287 254.781C149.946 254.781 149.641 254.848 149.373 254.98C149.107 255.113 148.898 255.296 148.744 255.527C148.593 255.759 148.519 256.026 148.521 256.328C148.519 256.615 148.588 256.865 148.729 257.078C148.872 257.292 149.076 257.457 149.342 257.574C149.607 257.691 149.923 257.75 150.287 257.75ZM150.287 253.953C150.574 253.953 150.827 253.896 151.049 253.781C151.273 253.667 151.449 253.507 151.576 253.301C151.704 253.095 151.769 252.854 151.771 252.578C151.769 252.307 151.705 252.072 151.58 251.871C151.455 251.668 151.282 251.512 151.061 251.402C150.839 251.29 150.581 251.234 150.287 251.234C149.988 251.234 149.726 251.29 149.502 251.402C149.278 251.512 149.105 251.668 148.982 251.871C148.86 252.072 148.8 252.307 148.803 252.578C148.8 252.854 148.861 253.095 148.986 253.301C149.114 253.507 149.29 253.667 149.514 253.781C149.738 253.896 149.995 253.953 150.287 253.953Z" fill="#B0D7FD"/>
<path d="M184.8 250.391C185.128 250.393 185.456 250.456 185.784 250.578C186.113 250.701 186.412 250.904 186.683 251.187C186.954 251.469 187.171 251.853 187.335 252.34C187.499 252.827 187.581 253.437 187.581 254.172C187.581 254.883 187.514 255.514 187.378 256.066C187.245 256.616 187.053 257.079 186.8 257.457C186.55 257.835 186.245 258.121 185.886 258.316C185.529 258.512 185.126 258.609 184.675 258.609C184.227 258.609 183.827 258.521 183.476 258.344C183.127 258.164 182.84 257.915 182.616 257.598C182.395 257.277 182.253 256.906 182.191 256.484H183.144C183.23 256.852 183.4 257.155 183.656 257.395C183.913 257.632 184.253 257.75 184.675 257.75C185.292 257.75 185.779 257.48 186.136 256.941C186.495 256.402 186.675 255.641 186.675 254.656H186.613C186.467 254.875 186.294 255.064 186.093 255.223C185.892 255.382 185.67 255.504 185.425 255.59C185.18 255.676 184.92 255.719 184.644 255.719C184.185 255.719 183.765 255.605 183.382 255.379C183.002 255.15 182.697 254.836 182.468 254.437C182.241 254.036 182.128 253.578 182.128 253.062C182.128 252.573 182.238 252.125 182.456 251.719C182.678 251.31 182.988 250.984 183.386 250.742C183.787 250.5 184.258 250.383 184.8 250.391ZM184.8 251.25C184.472 251.25 184.176 251.332 183.913 251.496C183.653 251.658 183.446 251.876 183.292 252.152C183.141 252.426 183.066 252.729 183.066 253.062C183.066 253.396 183.139 253.699 183.284 253.973C183.433 254.243 183.635 254.46 183.89 254.621C184.148 254.78 184.441 254.859 184.769 254.859C185.016 254.859 185.247 254.811 185.46 254.715C185.674 254.616 185.86 254.482 186.019 254.312C186.18 254.141 186.307 253.947 186.398 253.73C186.489 253.512 186.534 253.284 186.534 253.047C186.534 252.734 186.459 252.441 186.308 252.168C186.159 251.895 185.954 251.673 185.691 251.504C185.43 251.335 185.133 251.25 184.8 251.25Z" fill="#B0D7FD"/>
<path d="M217.075 250.5V258.5H216.106V251.516H216.059L214.106 252.812V251.828L216.106 250.5H217.075ZM221.985 258.609C221.397 258.609 220.895 258.449 220.481 258.129C220.067 257.806 219.751 257.339 219.532 256.727C219.313 256.112 219.204 255.37 219.204 254.5C219.204 253.635 219.313 252.897 219.532 252.285C219.753 251.671 220.071 251.202 220.485 250.879C220.902 250.553 221.402 250.391 221.985 250.391C222.568 250.391 223.067 250.553 223.481 250.879C223.898 251.202 224.216 251.671 224.434 252.285C224.656 252.897 224.766 253.635 224.766 254.5C224.766 255.37 224.657 256.112 224.438 256.727C224.219 257.339 223.903 257.806 223.489 258.129C223.075 258.449 222.574 258.609 221.985 258.609ZM221.985 257.75C222.568 257.75 223.022 257.469 223.344 256.906C223.667 256.344 223.829 255.542 223.829 254.5C223.829 253.807 223.755 253.217 223.606 252.73C223.46 252.243 223.249 251.872 222.973 251.617C222.7 251.362 222.371 251.234 221.985 251.234C221.407 251.234 220.955 251.52 220.63 252.09C220.304 252.658 220.141 253.461 220.141 254.5C220.141 255.193 220.214 255.781 220.36 256.266C220.506 256.75 220.716 257.118 220.989 257.371C221.265 257.624 221.597 257.75 221.985 257.75Z" fill="#B0D7FD"/>
<path d="M252.527 250.5V258.5H251.559V251.516H251.512L249.559 252.812V251.828L251.559 250.5H252.527ZM257.641 250.5V258.5H256.672V251.516H256.625L254.672 252.812V251.828L256.672 250.5H257.641Z" fill="#B0D7FD"/>
</g>
</g>
<defs>
<clipPath id="clip0_518_194">
<rect width="266" height="238" fill="white" transform="translate(0 28)"/>
</clipPath>
<clipPath id="clip1_518_194">
<rect width="266" height="24" fill="white" transform="translate(0 28)"/>
</clipPath>
<clipPath id="clip2_518_194">
<rect width="266" height="24" fill="white" transform="translate(0 63.6667)"/>
</clipPath>
<clipPath id="clip3_518_194">
<rect width="266" height="24" fill="white" transform="translate(0 99.3333)"/>
</clipPath>
<clipPath id="clip4_518_194">
<rect width="266" height="24" fill="white" transform="translate(0 135)"/>
</clipPath>
<clipPath id="clip5_518_194">
<rect width="266" height="24" fill="white" transform="translate(0 170.667)"/>
</clipPath>
<clipPath id="clip6_518_194">
<rect width="266" height="24" fill="white" transform="translate(0 206.333)"/>
</clipPath>
<clipPath id="clip7_518_194">
<rect width="266" height="24" fill="white" transform="translate(0 242)"/>
</clipPath>
</defs>
</svg>
