<svg width="515" height="145" viewBox="0 0 515 145" fill="none" xmlns="http://www.w3.org/2000/svg">
<path d="M192.498 81.7041H169.753V68.5959H192.498C196.218 68.5959 199.231 67.9889 201.536 66.7753C203.881 65.5211 205.6 63.8217 206.692 61.6775C207.783 59.493 208.329 57.0047 208.329 54.2132C208.329 51.5024 207.783 48.974 206.692 46.6273C205.6 44.2809 203.881 42.3793 201.536 40.9229C199.231 39.4664 196.218 38.738 192.498 38.738H175.212V113.929H158.531V25.5692H192.498C199.373 25.5692 205.236 26.8032 210.088 29.2711C214.981 31.6985 218.701 35.0768 221.249 39.4058C223.837 43.6942 225.131 48.5895 225.131 54.0917C225.131 59.7964 223.837 64.7119 221.249 68.8385C218.701 72.9653 214.981 76.141 210.088 78.3663C205.236 80.5915 199.373 81.7041 192.498 81.7041ZM251.789 61.6775V113.929H235.777V48.2658H250.94L251.789 61.6775ZM271.744 47.8412L271.503 62.77C270.613 62.6081 269.601 62.4867 268.47 62.4059C267.378 62.3249 266.346 62.2845 265.375 62.2845C262.909 62.2845 260.745 62.6283 258.887 63.316C257.026 63.9634 255.469 64.9142 254.216 66.1684C253.003 67.4227 252.073 68.9599 251.426 70.7804C250.779 72.5606 250.415 74.5836 250.334 76.8492L246.877 76.4243C246.877 72.2571 247.301 68.3936 248.15 64.8334C248.999 61.2731 250.233 58.1577 251.85 55.4876C253.468 52.8173 255.489 50.7541 257.916 49.2977C260.383 47.8005 263.214 47.0522 266.408 47.0522C267.298 47.0522 268.248 47.133 269.257 47.2948C270.31 47.4163 271.138 47.5983 271.744 47.8412ZM274.749 81.7647V80.4903C274.749 75.676 275.437 71.2457 276.811 67.2C278.185 63.1138 280.188 59.5738 282.815 56.58C285.445 53.586 288.659 51.2598 292.46 49.6009C296.262 47.9018 300.587 47.0522 305.439 47.0522C310.374 47.0522 314.74 47.9018 318.542 49.6009C322.382 51.2598 325.617 53.586 328.247 56.58C330.876 59.5738 332.876 63.1138 334.251 67.2C335.625 71.2457 336.313 75.676 336.313 80.4903V81.7647C336.313 86.5388 335.625 90.9688 334.251 95.055C332.876 99.1008 330.876 102.641 328.247 105.675C325.617 108.669 322.403 110.995 318.601 112.654C314.802 114.313 310.454 115.142 305.561 115.142C300.708 115.142 296.363 114.313 292.52 112.654C288.68 110.995 285.445 108.669 282.815 105.675C280.188 102.641 278.185 99.1008 276.811 95.055C275.437 90.9688 274.749 86.5388 274.749 81.7647ZM290.763 80.4903V81.7647C290.763 84.6373 291.045 87.3278 291.612 89.836C292.176 92.3445 293.045 94.5493 294.218 96.4509C295.393 98.3524 296.909 99.8493 298.767 100.942C300.669 101.994 302.934 102.52 305.561 102.52C308.149 102.52 310.374 101.994 312.232 100.942C314.093 99.8493 315.61 98.3524 316.782 96.4509C317.996 94.5493 318.886 92.3445 319.45 89.836C320.017 87.3278 320.302 84.6373 320.302 81.7647V80.4903C320.302 77.6584 320.017 75.0085 319.45 72.5404C318.886 70.0321 317.996 67.8271 316.782 65.9255C315.61 63.9836 314.072 62.4665 312.173 61.3741C310.312 60.2413 308.068 59.675 305.439 59.675C302.851 59.675 300.628 60.2413 298.767 61.3741C296.909 62.4665 295.393 63.9836 294.218 65.9255C293.045 67.8271 292.176 70.0321 291.612 72.5404C291.045 75.0085 290.763 77.6584 290.763 80.4903ZM383.96 87.1051V25.5692H400.639V87.1051C400.639 92.9714 399.366 98.0086 396.817 102.216C394.27 106.383 390.792 109.579 386.385 111.805C381.977 114.03 377.003 115.142 371.465 115.142C365.761 115.142 360.707 114.192 356.3 112.29C351.893 110.348 348.435 107.395 345.927 103.43C343.461 99.4651 342.229 94.4281 342.229 88.319H358.968C358.968 91.6364 359.475 94.3067 360.485 96.3294C361.496 98.3524 362.933 99.8089 364.791 100.699C366.693 101.589 368.916 102.034 371.465 102.034C373.931 102.034 376.095 101.468 377.953 100.335C379.855 99.1616 381.33 97.4623 382.381 95.237C383.434 93.012 383.96 90.3013 383.96 87.1051ZM444.22 115.142C439.246 115.142 434.779 114.333 430.817 112.715C426.852 111.096 423.478 108.851 420.688 105.979C417.937 103.066 415.815 99.6875 414.319 95.8439C412.862 91.96 412.135 87.7928 412.135 83.3426V80.9152C412.135 75.858 412.862 71.2659 414.319 67.1394C415.773 62.9722 417.836 59.3917 420.504 56.3977C423.175 53.404 426.368 51.098 430.087 49.4797C433.809 47.8614 437.913 47.0522 442.401 47.0522C447.051 47.0522 451.156 47.8412 454.714 49.4188C458.272 50.9564 461.243 53.1409 463.629 55.9731C466.016 58.805 467.817 62.2034 469.028 66.1684C470.242 70.0927 470.847 74.4419 470.847 79.2161V85.9521H419.412V74.9072H455.079V73.6934C454.996 71.1448 454.512 68.8183 453.622 66.7145C452.732 64.5703 451.357 62.8709 449.497 61.617C447.639 60.3223 445.232 59.675 442.279 59.675C439.893 59.675 437.812 60.2009 436.032 61.2526C434.293 62.2643 432.838 63.7208 431.666 65.6223C430.532 67.4832 429.683 69.7085 429.117 72.2978C428.552 74.887 428.268 77.7593 428.268 80.9152V83.3426C428.268 86.0937 428.633 88.6426 429.36 90.989C430.129 93.3357 431.241 95.3787 432.696 97.1184C434.192 98.8177 435.972 100.153 438.035 101.124C440.136 102.054 442.522 102.52 445.19 102.52C448.547 102.52 451.58 101.872 454.29 100.578C457.038 99.2424 459.424 97.2802 461.448 94.6909L469.514 103.066C468.14 105.088 466.28 107.03 463.935 108.892C461.629 110.753 458.839 112.27 455.563 113.443C452.289 114.576 448.508 115.142 444.22 115.142ZM511.398 48.2658V59.7964H473.792V48.2658H511.398ZM483.859 32.1232H499.933V94.9944C499.933 96.9364 500.197 98.4332 500.722 99.4853C501.248 100.537 502.037 101.245 503.088 101.609C504.138 101.973 505.391 102.155 506.848 102.155C507.899 102.155 508.869 102.095 509.759 101.973C510.65 101.852 511.398 101.731 512.003 101.609L512.065 113.625C510.73 114.07 509.213 114.434 507.516 114.718C505.857 115.001 503.978 115.142 501.874 115.142C498.274 115.142 495.122 114.535 492.413 113.322C489.703 112.067 487.599 110.065 486.103 107.314C484.607 104.522 483.859 100.84 483.859 96.2688V32.1232Z" fill="#007DFA"/>
<path d="M24.8452 91.1411C19.6898 91.1411 15.0313 93.2542 11.6772 96.6099C4.34792 103.943 0 134.643 0 134.643C0 134.643 30.6839 130.293 38.0132 122.959C41.3672 119.604 43.4792 114.943 43.4792 109.785C43.4792 99.4687 35.1559 91.1411 24.8452 91.1411ZM29.2554 114.197C27.516 115.937 15.7767 118.92 15.7767 118.92C15.7767 118.92 18.696 107.237 20.4973 105.434C21.5532 104.254 23.1061 103.57 24.8452 103.57C28.2613 103.57 31.0566 106.367 31.0566 109.785C31.0566 111.525 30.3734 113.079 29.2554 114.197ZM95.7784 82.7515C135.282 43.2271 122.114 12.4651 122.114 12.4651C122.114 12.4651 91.3682 -0.709687 51.8644 38.8147L36.3983 35.7076C32.3609 34.8997 28.1371 36.2047 25.1558 39.1254L0 64.3565L31.0566 77.6555L56.9577 103.57L70.2499 134.643L95.4057 109.474C98.3249 106.553 99.6292 102.327 98.8218 98.2256L95.7784 82.7515ZM33.6031 65.2265L21.7396 60.1305L33.9758 47.8881L42.9202 49.6902C39.3796 54.8483 36.212 60.2548 33.6031 65.2265ZM74.4734 112.892L69.3803 101.022C74.3492 98.412 79.7531 95.2427 84.8464 91.7003L86.6476 100.649L74.4734 112.892ZM86.9581 73.9891C78.7593 82.1922 65.964 88.9039 61.8647 90.9546L43.6655 72.746C45.6531 68.7067 52.3613 55.9048 60.6222 47.6395C89.6913 18.5554 111.741 22.8434 111.741 22.8434C111.741 22.8434 116.027 44.905 86.9581 73.9891ZM80.7468 66.2829C87.5795 66.2829 93.1695 60.69 93.1695 53.854C93.1695 47.0178 87.5795 41.425 80.7468 41.425C73.9144 41.425 68.3245 47.0178 68.3245 53.854C68.3245 60.69 73.9144 66.2829 80.7468 66.2829Z" fill="url(#paint0_linear_62_315)"/>
<defs>
<linearGradient id="paint0_linear_62_315" x1="62.1106" y1="10.3572" x2="62.1106" y2="134.643" gradientUnits="userSpaceOnUse">
<stop stop-color="#34E06F"/>
<stop offset="1" stop-color="#007DFA"/>
</linearGradient>
</defs>
</svg>
