<?xml version="1.0" encoding="UTF-8" standalone="no"?><svg width="20" height="20" viewBox="0 0 20 20" fill="none" xmlns="http://www.w3.org/2000/svg">
<path d="M19 9.50002C19.0034 10.8199 18.695 12.1219 18.1 13.3C17.3944 14.7118 16.3097 15.8992 14.9674 16.7293C13.6251 17.5594 12.0782 17.9994 10.5 18C9.18012 18.0034 7.8781 17.6951 6.69999 17.1L1 19L2.9 13.3C2.30493 12.1219 1.99656 10.8199 2 9.50002C2.00061 7.92177 2.44061 6.37487 3.27072 5.03257C4.10082 3.69027 5.28825 2.60559 6.69999 1.90003C7.8781 1.30496 9.18012 0.996587 10.5 1.00003H11C13.0843 1.11502 15.053 1.99479 16.5291 3.47088C18.0052 4.94698 18.885 6.91567 19 9.00002V9.50002Z" fill="#E8E8E8" stroke="#E8E8E8" stroke-width="2" stroke-linecap="round" stroke-linejoin="round"/>
<circle cx="7" cy="10" r="0.5" fill="#E8E8E8" stroke="#004B96"/>
<circle cx="11" cy="10" r="0.5" fill="#E8E8E8" stroke="#004B96"/>
<circle cx="15" cy="10" r="0.5" fill="#E8E8E8" stroke="#004B96"/>
</svg>
