<svg width="19" height="19" viewBox="0 0 19 19" fill="none" xmlns="http://www.w3.org/2000/svg">
<path d="M6.72389 2.64944C6.53389 3.325 6.43889 4.03222 6.43889 4.75C6.43889 9.05667 9.94333 12.5611 14.25 12.5611C14.9678 12.5611 15.675 12.4661 16.3506 12.2761C15.2528 14.9783 12.5928 16.8889 9.5 16.8889C5.42556 16.8889 2.11111 13.5744 2.11111 9.5C2.11111 6.40722 4.02167 3.74722 6.72389 2.64944ZM9.5 0C4.25389 0 0 4.25389 0 9.5C0 14.7461 4.25389 19 9.5 19C14.7461 19 19 14.7461 19 9.5C19 9.01444 18.9578 8.52889 18.8944 8.06444C17.86 9.51056 16.1711 10.45 14.25 10.45C11.1044 10.45 8.55 7.89556 8.55 4.75C8.55 2.83944 9.48944 1.14 10.9356 0.105555C10.4711 0.0422221 9.98556 0 9.5 0Z" fill="#000000"/>
</svg>
