<?xml version="1.0" encoding="UTF-8" standalone="no"?><svg width="22" height="19" viewBox="0 0 22 19" fill="none" xmlns="http://www.w3.org/2000/svg">
<path d="M19.2344 0H1.92344C0.86555 0 0 0.86555 0 1.92344V9.61722H1.92344V1.92344H19.2344V17.311C20.2923 17.311 21.1579 16.4455 21.1579 15.3876V1.92344C21.1579 0.86555 20.2923 0 19.2344 0Z" fill="#E8E8E8"/>
<path d="M11.5407 6.73214C11.5407 4.60674 9.81922 2.88525 7.69381 2.88525C5.56841 2.88525 3.84692 4.60674 3.84692 6.73214C3.84692 8.85755 5.56841 10.579 7.69381 10.579C9.81922 10.579 11.5407 8.85755 11.5407 6.73214ZM5.77037 6.73214C5.77037 5.67425 6.63592 4.8087 7.69381 4.8087C8.75171 4.8087 9.61726 5.67425 9.61726 6.73214C9.61726 7.79004 8.75171 8.65559 7.69381 8.65559C6.63592 8.65559 5.77037 7.79004 5.77037 6.73214Z" fill="#E8E8E8"/>
<path d="M13.8392 13.0411C12.2235 12.214 10.1269 11.5408 7.69378 11.5408C5.26062 11.5408 3.16407 12.214 1.54837 13.0411C0.586651 13.5315 0 14.5221 0 15.5992V18.2728H15.3876V15.5992C15.3876 14.5221 14.8009 13.5315 13.8392 13.0411ZM13.4641 16.3494H1.92344C1.92344 15.6569 1.82727 15.0607 2.42354 14.7529C3.56799 14.1663 5.4145 13.4642 7.69378 13.4642C9.97306 13.4642 11.8196 14.1663 12.964 14.7529C13.5699 15.0607 13.4641 15.6666 13.4641 16.3494Z" fill="#E8E8E8"/>
</svg>
