<?xml version="1.0" encoding="UTF-8" standalone="no"?><svg width="27" height="27" viewBox="0 0 27 27" fill="none" xmlns="http://www.w3.org/2000/svg">
<path d="M13.5 17.9844C20.4036 17.9844 26 15.8476 26 13.2117C26 10.5758 20.4036 8.43896 13.5 8.43896C6.59644 8.43896 1 10.5758 1 13.2117C1 15.8476 6.59644 17.9844 13.5 17.9844Z" stroke="#61DAFB"/>
<path d="M9.3667 15.598C12.8185 21.5767 17.4672 25.355 19.75 24.037C22.0328 22.719 21.0851 16.804 17.6333 10.8253C14.1815 4.84666 9.53276 1.06841 7.25 2.38636C4.96724 3.70432 5.91492 9.61939 9.3667 15.598Z" stroke="#61DAFB"/>
<path d="M9.3667 10.8253C5.91492 16.804 4.96724 22.719 7.25 24.037C9.53276 25.3549 14.1815 21.5767 17.6333 15.598C21.0851 9.61936 22.0328 3.70429 19.75 2.38634C17.4672 1.06839 12.8185 4.84664 9.3667 10.8253Z" stroke="#61DAFB"/>
<path d="M13.5568 16.0226C14.8434 16.0226 15.8864 14.9796 15.8864 13.6931C15.8864 12.4065 14.8434 11.3635 13.5568 11.3635C12.2703 11.3635 11.2273 12.4065 11.2273 13.6931C11.2273 14.9796 12.2703 16.0226 13.5568 16.0226Z" fill="#61DAFB"/>
</svg>
