<svg width="607" height="607" viewBox="0 0 607 607" fill="none" xmlns="http://www.w3.org/2000/svg">
<path d="M121.405 394.541C96.2133 394.541 73.4499 404.861 57.0603 421.25C21.2459 457.065 0 607 0 607C0 607 149.935 585.754 185.75 549.939C202.139 533.55 212.459 510.787 212.459 485.595C212.459 435.213 171.787 394.541 121.405 394.541ZM142.955 507.145C134.456 515.643 77.092 530.212 77.092 530.212C77.092 530.212 91.3571 473.151 100.159 464.349C105.319 458.582 112.907 455.244 121.405 455.244C138.098 455.244 151.756 468.902 151.756 485.595C151.756 494.093 148.418 501.682 142.955 507.145ZM468.016 353.567C661.049 160.534 596.705 10.2951 596.705 10.2951C596.705 10.2951 446.466 -54.0494 253.433 138.984L177.859 123.809C158.13 119.864 137.491 126.237 122.922 140.502L0 263.728L151.756 328.679L278.321 455.244L343.272 607L466.195 484.077C480.459 469.813 486.833 449.174 482.887 429.141L468.016 353.567ZM164.2 267.977L106.229 243.088L166.021 183.298L209.727 192.099C192.427 217.291 176.948 243.695 164.2 267.977ZM363.91 500.771L339.023 442.8C363.303 430.052 389.709 414.573 414.597 397.273L423.399 440.979L363.91 500.771ZM424.916 310.773C384.853 350.836 322.33 383.615 302.299 393.631L213.369 304.701C223.081 284.974 255.861 222.45 296.227 182.084C438.272 40.0394 546.018 60.9817 546.018 60.9817C546.018 60.9817 566.961 168.728 424.916 310.773ZM394.565 273.136C427.953 273.136 455.268 245.821 455.268 212.435C455.268 179.047 427.953 151.732 394.565 151.732C361.179 151.732 333.864 179.047 333.864 212.435C333.864 245.821 361.179 273.136 394.565 273.136Z" fill="url(#paint0_linear_810_593)" fill-opacity="0.05"/>
<defs>
<linearGradient id="paint0_linear_810_593" x1="303.5" y1="3.7027e-05" x2="303.5" y2="607" gradientUnits="userSpaceOnUse">
<stop stop-color="#34E06F"/>
<stop offset="1" stop-color="#007DFA"/>
</linearGradient>
</defs>
</svg>
