<svg width="25" height="25" viewBox="0 0 25 25" fill="none" xmlns="http://www.w3.org/2000/svg">
<path d="M12.5 9.09091C14.375 9.09091 15.9091 10.625 15.9091 12.5C15.9091 14.375 14.375 15.9091 12.5 15.9091C10.625 15.9091 9.09091 14.375 9.09091 12.5C9.09091 10.625 10.625 9.09091 12.5 9.09091ZM12.5 6.81818C9.36364 6.81818 6.81818 9.36364 6.81818 12.5C6.81818 15.6364 9.36364 18.1818 12.5 18.1818C15.6364 18.1818 18.1818 15.6364 18.1818 12.5C18.1818 9.36364 15.6364 6.81818 12.5 6.81818ZM1.13636 13.6364H3.40909C4.03409 13.6364 4.54545 13.125 4.54545 12.5C4.54545 11.875 4.03409 11.3636 3.40909 11.3636H1.13636C0.511364 11.3636 0 11.875 0 12.5C0 13.125 0.511364 13.6364 1.13636 13.6364ZM21.5909 13.6364H23.8636C24.4886 13.6364 25 13.125 25 12.5C25 11.875 24.4886 11.3636 23.8636 11.3636H21.5909C20.9659 11.3636 20.4545 11.875 20.4545 12.5C20.4545 13.125 20.9659 13.6364 21.5909 13.6364ZM11.3636 1.13636V3.40909C11.3636 4.03409 11.875 4.54545 12.5 4.54545C13.125 4.54545 13.6364 4.03409 13.6364 3.40909V1.13636C13.6364 0.511364 13.125 0 12.5 0C11.875 0 11.3636 0.511364 11.3636 1.13636ZM11.3636 21.5909V23.8636C11.3636 24.4886 11.875 25 12.5 25C13.125 25 13.6364 24.4886 13.6364 23.8636V21.5909C13.6364 20.9659 13.125 20.4545 12.5 20.4545C11.875 20.4545 11.3636 20.9659 11.3636 21.5909ZM5.67045 4.06818C5.22727 3.625 4.5 3.625 4.06818 4.06818C3.625 4.51136 3.625 5.23864 4.06818 5.67045L5.27273 6.875C5.71591 7.31818 6.44318 7.31818 6.875 6.875C7.30682 6.43182 7.31818 5.70455 6.875 5.27273L5.67045 4.06818ZM19.7273 18.125C19.2841 17.6818 18.5568 17.6818 18.125 18.125C17.6818 18.5682 17.6818 19.2955 18.125 19.7273L19.3295 20.9318C19.7727 21.375 20.5 21.375 20.9318 20.9318C21.375 20.4886 21.375 19.7614 20.9318 19.3295L19.7273 18.125ZM20.9318 5.67045C21.375 5.22727 21.375 4.5 20.9318 4.06818C20.4886 3.625 19.7614 3.625 19.3295 4.06818L18.125 5.27273C17.6818 5.71591 17.6818 6.44318 18.125 6.875C18.5682 7.30682 19.2955 7.31818 19.7273 6.875L20.9318 5.67045ZM6.875 19.7273C7.31818 19.2841 7.31818 18.5568 6.875 18.125C6.43182 17.6818 5.70455 17.6818 5.27273 18.125L4.06818 19.3295C3.625 19.7727 3.625 20.5 4.06818 20.9318C4.51136 21.3636 5.23864 21.375 5.67045 20.9318L6.875 19.7273Z" fill="white"/>
</svg>
